<svg width="50" height="33" viewBox="0 0 50 33" fill="none" xmlns="http://www.w3.org/2000/svg">
<path d="M14.872 14.344H11.22L10.318 19.536H13.97L14.872 14.344ZM25.366 9.592L24.838 12.364C24.706 13.0533 24.4127 13.5593 23.958 13.882C23.518 14.19 22.814 14.344 21.846 14.344H20.46L19.558 19.536H21.934C22.6233 19.536 23.1147 19.7413 23.408 20.152C23.7013 20.548 23.7673 21.23 23.606 22.198L23.254 24.31H18.898L17.358 33H14.19C13.882 33 13.5887 32.9267 13.31 32.78C13.046 32.6333 12.8187 32.4353 12.628 32.186C12.452 31.9367 12.3273 31.6507 12.254 31.328C12.1807 31.0053 12.1807 30.6607 12.254 30.294L13.31 24.31H9.68L8.602 30.624C8.52867 31.0493 8.38933 31.416 8.184 31.724C7.99333 32.0173 7.75867 32.2593 7.48 32.45C7.216 32.6407 6.91533 32.78 6.578 32.868C6.25533 32.956 5.918 33 5.566 33H2.53L4.07 24.31H2.134C1.44467 24.31 0.953333 24.112 0.66 23.716C0.366667 23.3053 0.300667 22.616 0.462 21.648L0.814 19.536H4.73L5.632 14.344H1.254L1.782 11.572C1.914 10.8973 2.2 10.3987 2.64 10.076C3.09467 9.75333 3.806 9.592 4.774 9.592H6.27L7.414 3.146C7.546 2.45667 7.876 1.92133 8.404 1.54C8.94667 1.144 9.57 0.946 10.274 0.946H13.398L11.858 9.592H15.51L17.05 0.946H20.086C20.438 0.946 20.7533 1.00467 21.032 1.122C21.3253 1.23933 21.5673 1.40066 21.758 1.606C21.9633 1.79667 22.11 2.03133 22.198 2.31C22.286 2.574 22.3007 2.86733 22.242 3.19L21.098 9.592H25.366ZM46.9954 26.84C47.7288 26.84 48.3081 27.0453 48.7334 27.456C49.1588 27.852 49.3714 28.38 49.3714 29.04V33H26.8434V30.8C26.8434 30.3747 26.9314 29.92 27.1074 29.436C27.2834 28.952 27.5914 28.512 28.0314 28.116L37.2714 18.81C38.0634 18.018 38.7528 17.2627 39.3394 16.544C39.9261 15.8253 40.4101 15.1213 40.7914 14.432C41.1728 13.728 41.4588 13.0313 41.6494 12.342C41.8401 11.638 41.9354 10.8973 41.9354 10.12C41.9354 8.844 41.6274 7.86866 41.0114 7.194C40.4101 6.50467 39.4861 6.16 38.2394 6.16C37.2274 6.16 36.3694 6.43133 35.6654 6.974C34.9761 7.502 34.4994 8.162 34.2354 8.954C33.9274 9.76066 33.5241 10.296 33.0254 10.56C32.5268 10.824 31.8154 10.8827 30.8914 10.736L27.2834 10.098C27.5181 8.49933 27.9654 7.106 28.6254 5.918C29.3001 4.73 30.1288 3.74 31.1114 2.948C32.1088 2.156 33.2454 1.56933 34.5214 1.188C35.7974 0.791999 37.1688 0.593999 38.6354 0.593999C40.2194 0.593999 41.6421 0.828665 42.9034 1.298C44.1794 1.75266 45.2648 2.39066 46.1594 3.212C47.0541 4.03333 47.7361 5.016 48.2054 6.16C48.6894 7.28933 48.9314 8.536 48.9314 9.9C48.9314 11.0733 48.7628 12.1587 48.4254 13.156C48.1028 14.1533 47.6554 15.1067 47.0834 16.016C46.5114 16.9107 45.8441 17.7833 45.0814 18.634C44.3334 19.47 43.5341 20.3207 42.6834 21.186L36.4134 27.61C37.2201 27.3607 38.0194 27.17 38.8114 27.038C39.6034 26.906 40.3368 26.84 41.0114 26.84H46.9954Z" fill="#D1D5DB"/>
</svg>
