<svg width="50" height="34" viewBox="0 0 50 34" fill="none" xmlns="http://www.w3.org/2000/svg">
<path d="M14.872 14.344H11.22L10.318 19.536H13.97L14.872 14.344ZM25.366 9.592L24.838 12.364C24.706 13.0533 24.4127 13.5593 23.958 13.882C23.518 14.19 22.814 14.344 21.846 14.344H20.46L19.558 19.536H21.934C22.6233 19.536 23.1147 19.7413 23.408 20.152C23.7013 20.548 23.7673 21.23 23.606 22.198L23.254 24.31H18.898L17.358 33H14.19C13.882 33 13.5887 32.9267 13.31 32.78C13.046 32.6333 12.8187 32.4353 12.628 32.186C12.452 31.9367 12.3273 31.6507 12.254 31.328C12.1807 31.0053 12.1807 30.6607 12.254 30.294L13.31 24.31H9.68L8.602 30.624C8.52867 31.0493 8.38933 31.416 8.184 31.724C7.99333 32.0173 7.75867 32.2593 7.48 32.45C7.216 32.6407 6.91533 32.78 6.578 32.868C6.25533 32.956 5.918 33 5.566 33H2.53L4.07 24.31H2.134C1.44467 24.31 0.953333 24.112 0.66 23.716C0.366667 23.3053 0.300667 22.616 0.462 21.648L0.814 19.536H4.73L5.632 14.344H1.254L1.782 11.572C1.914 10.8973 2.2 10.3987 2.64 10.076C3.09467 9.75333 3.806 9.592 4.774 9.592H6.27L7.414 3.146C7.546 2.45667 7.876 1.92133 8.404 1.54C8.94667 1.144 9.57 0.946 10.274 0.946H13.398L11.858 9.592H15.51L17.05 0.946H20.086C20.438 0.946 20.7533 1.00467 21.032 1.122C21.3253 1.23933 21.5673 1.40066 21.758 1.606C21.9633 1.79667 22.11 2.03133 22.198 2.31C22.286 2.574 22.3007 2.86733 22.242 3.19L21.098 9.592H25.366ZM27.4594 10.098C27.6941 8.49933 28.1414 7.106 28.8014 5.918C29.4761 4.73 30.3048 3.74 31.2874 2.948C32.2848 2.156 33.4214 1.56933 34.6974 1.188C35.9734 0.791999 37.3448 0.593999 38.8114 0.593999C40.3954 0.593999 41.8034 0.821332 43.0354 1.276C44.2674 1.716 45.3088 2.31733 46.1594 3.08C47.0101 3.84267 47.6554 4.73 48.0954 5.742C48.5354 6.73933 48.7554 7.79533 48.7554 8.91C48.7554 9.922 48.6528 10.8167 48.4474 11.594C48.2421 12.3567 47.9341 13.024 47.5234 13.596C47.1274 14.1533 46.6288 14.63 46.0274 15.026C45.4408 15.4073 44.7661 15.73 44.0034 15.994C47.5528 17.2407 49.3274 19.6607 49.3274 23.254C49.3274 24.9553 49.0194 26.4367 48.4034 27.698C47.7874 28.9593 46.9588 30.008 45.9174 30.844C44.8908 31.68 43.6954 32.3107 42.3314 32.736C40.9674 33.1467 39.5448 33.352 38.0634 33.352C36.5381 33.352 35.1814 33.1907 33.9934 32.868C32.8054 32.5307 31.7494 32.0173 30.8254 31.328C29.9014 30.624 29.0874 29.7293 28.3834 28.644C27.6941 27.5587 27.0928 26.268 26.5794 24.772L29.6154 23.54C30.4074 23.232 31.1408 23.1513 31.8154 23.298C32.4901 23.4447 32.9741 23.782 33.2674 24.31C33.9274 25.5273 34.6241 26.4147 35.3574 26.972C36.1054 27.5147 36.9781 27.786 37.9754 27.786C38.7381 27.786 39.3981 27.6613 39.9554 27.412C40.5274 27.148 40.9968 26.818 41.3634 26.422C41.7448 26.0113 42.0308 25.5493 42.2214 25.036C42.4121 24.5227 42.5074 24.002 42.5074 23.474C42.5074 22.7847 42.4561 22.1687 42.3534 21.626C42.2654 21.0687 42.0014 20.592 41.5614 20.196C41.1214 19.8 40.4541 19.4993 39.5594 19.294C38.6794 19.074 37.4474 18.964 35.8634 18.964V14.256C37.1981 14.256 38.2761 14.1533 39.0974 13.948C39.9188 13.7427 40.5494 13.464 40.9894 13.112C41.4441 12.7453 41.7448 12.3053 41.8914 11.792C42.0381 11.2787 42.1114 10.714 42.1114 10.098C42.1114 8.83667 41.8034 7.86866 41.1874 7.194C40.5861 6.50467 39.6621 6.16 38.4154 6.16C37.4034 6.16 36.5454 6.43133 35.8414 6.974C35.1521 7.502 34.6754 8.162 34.4114 8.954C34.1034 9.76066 33.7001 10.296 33.2014 10.56C32.7028 10.824 31.9914 10.8827 31.0674 10.736L27.4594 10.098Z" fill="#D1D5DB"/>
</svg>
