<svg width="51" height="33" viewBox="0 0 51 33" fill="none" xmlns="http://www.w3.org/2000/svg">
<path d="M14.872 14.344H11.22L10.318 19.536H13.97L14.872 14.344ZM25.366 9.592L24.838 12.364C24.706 13.0533 24.4127 13.5593 23.958 13.882C23.518 14.19 22.814 14.344 21.846 14.344H20.46L19.558 19.536H21.934C22.6233 19.536 23.1147 19.7413 23.408 20.152C23.7013 20.548 23.7673 21.23 23.606 22.198L23.254 24.31H18.898L17.358 33H14.19C13.882 33 13.5887 32.9267 13.31 32.78C13.046 32.6333 12.8187 32.4353 12.628 32.186C12.452 31.9367 12.3273 31.6507 12.254 31.328C12.1807 31.0053 12.1807 30.6607 12.254 30.294L13.31 24.31H9.68L8.602 30.624C8.52867 31.0493 8.38933 31.416 8.184 31.724C7.99333 32.0173 7.75867 32.2593 7.48 32.45C7.216 32.6407 6.91533 32.78 6.578 32.868C6.25533 32.956 5.918 33 5.566 33H2.53L4.07 24.31H2.134C1.44467 24.31 0.953333 24.112 0.66 23.716C0.366667 23.3053 0.300667 22.616 0.462 21.648L0.814 19.536H4.73L5.632 14.344H1.254L1.782 11.572C1.914 10.8973 2.2 10.3987 2.64 10.076C3.09467 9.75333 3.806 9.592 4.774 9.592H6.27L7.414 3.146C7.546 2.45667 7.876 1.92133 8.404 1.54C8.94667 1.144 9.57 0.946 10.274 0.946H13.398L11.858 9.592H15.51L17.05 0.946H20.086C20.438 0.946 20.7533 1.00467 21.032 1.122C21.3253 1.23933 21.5673 1.40066 21.758 1.606C21.9633 1.79667 22.11 2.03133 22.198 2.31C22.286 2.574 22.3007 2.86733 22.242 3.19L21.098 9.592H25.366ZM40.8134 20.548V12.188C40.8134 11.6747 40.8281 11.1247 40.8574 10.538C40.9014 9.93667 40.9601 9.31333 41.0334 8.668L32.5634 20.548H40.8134ZM50.0534 20.548V24.376C50.0534 24.7133 49.9361 25.0067 49.7014 25.256C49.4814 25.5053 49.1588 25.63 48.7334 25.63H46.7534V33H40.8134V25.63H27.9214C27.4961 25.63 27.1074 25.498 26.7554 25.234C26.4181 24.97 26.2054 24.64 26.1174 24.244L25.4134 20.878L40.2414 0.946H46.7534V20.548H50.0534Z" fill="#D1D5DB"/>
</svg>
