<svg width="50" height="34" viewBox="0 0 50 34" fill="none" xmlns="http://www.w3.org/2000/svg">
<path d="M14.872 14.344H11.22L10.318 19.536H13.97L14.872 14.344ZM25.366 9.592L24.838 12.364C24.706 13.0533 24.4127 13.5593 23.958 13.882C23.518 14.19 22.814 14.344 21.846 14.344H20.46L19.558 19.536H21.934C22.6233 19.536 23.1147 19.7413 23.408 20.152C23.7013 20.548 23.7673 21.23 23.606 22.198L23.254 24.31H18.898L17.358 33H14.19C13.882 33 13.5887 32.9267 13.31 32.78C13.046 32.6333 12.8187 32.4353 12.628 32.186C12.452 31.9367 12.3273 31.6507 12.254 31.328C12.1807 31.0053 12.1807 30.6607 12.254 30.294L13.31 24.31H9.68L8.602 30.624C8.52867 31.0493 8.38933 31.416 8.184 31.724C7.99333 32.0173 7.75867 32.2593 7.48 32.45C7.216 32.6407 6.91533 32.78 6.578 32.868C6.25533 32.956 5.918 33 5.566 33H2.53L4.07 24.31H2.134C1.44467 24.31 0.953333 24.112 0.66 23.716C0.366667 23.3053 0.300667 22.616 0.462 21.648L0.814 19.536H4.73L5.632 14.344H1.254L1.782 11.572C1.914 10.8973 2.2 10.3987 2.64 10.076C3.09467 9.75333 3.806 9.592 4.774 9.592H6.27L7.414 3.146C7.546 2.45667 7.876 1.92133 8.404 1.54C8.94667 1.144 9.57 0.946 10.274 0.946H13.398L11.858 9.592H15.51L17.05 0.946H20.086C20.438 0.946 20.7533 1.00467 21.032 1.122C21.3253 1.23933 21.5673 1.40066 21.758 1.606C21.9633 1.79667 22.11 2.03133 22.198 2.31C22.286 2.574 22.3007 2.86733 22.242 3.19L21.098 9.592H25.366ZM35.2914 12.232C35.8928 12.1147 36.4721 12.034 37.0294 11.99C37.5868 11.946 38.1294 11.924 38.6574 11.924C40.3441 11.924 41.8328 12.1807 43.1234 12.694C44.4141 13.2073 45.4994 13.9113 46.3794 14.806C47.2594 15.686 47.9194 16.7273 48.3594 17.93C48.8141 19.118 49.0414 20.394 49.0414 21.758C49.0414 23.474 48.7334 25.0433 48.1174 26.466C47.5161 27.874 46.6728 29.0913 45.5874 30.118C44.5021 31.1447 43.2041 31.944 41.6934 32.516C40.1974 33.0733 38.5548 33.352 36.7654 33.352C35.7241 33.352 34.7268 33.242 33.7734 33.022C32.8348 32.802 31.9474 32.5087 31.1114 32.142C30.2901 31.7607 29.5274 31.328 28.8234 30.844C28.1194 30.3453 27.4814 29.8173 26.9094 29.26L29.0214 26.444C29.2414 26.1507 29.4981 25.9307 29.7914 25.784C30.0848 25.6227 30.4001 25.542 30.7374 25.542C31.1774 25.542 31.5881 25.6667 31.9694 25.916C32.3654 26.1507 32.7908 26.4147 33.2454 26.708C33.7148 26.9867 34.2574 27.2433 34.8734 27.478C35.4894 27.7127 36.2521 27.83 37.1614 27.83C38.0708 27.83 38.8481 27.6833 39.4934 27.39C40.1388 27.082 40.6594 26.6713 41.0554 26.158C41.4661 25.63 41.7594 25.0213 41.9354 24.332C42.1261 23.628 42.2214 22.88 42.2214 22.088C42.2214 20.5333 41.7814 19.3527 40.9014 18.546C40.0214 17.7247 38.7748 17.314 37.1614 17.314C35.7241 17.314 34.3161 17.5853 32.9374 18.128L28.7134 16.984L31.4414 0.946H47.8534V3.762C47.8534 4.23133 47.7801 4.65667 47.6334 5.038C47.4868 5.41933 47.2521 5.75667 46.9294 6.05C46.6214 6.32867 46.2108 6.54866 45.6974 6.71C45.1841 6.85667 44.5681 6.93 43.8494 6.93H36.1934L35.2914 12.232Z" fill="#D1D5DB"/>
</svg>
