<svg width="51" height="34" viewBox="0 0 51 34" fill="none" xmlns="http://www.w3.org/2000/svg">
<path d="M14.872 14.344H11.22L10.318 19.536H13.97L14.872 14.344ZM25.366 9.592L24.838 12.364C24.706 13.0533 24.4127 13.5593 23.958 13.882C23.518 14.19 22.814 14.344 21.846 14.344H20.46L19.558 19.536H21.934C22.6233 19.536 23.1147 19.7413 23.408 20.152C23.7013 20.548 23.7673 21.23 23.606 22.198L23.254 24.31H18.898L17.358 33H14.19C13.882 33 13.5887 32.9267 13.31 32.78C13.046 32.6333 12.8187 32.4353 12.628 32.186C12.452 31.9367 12.3273 31.6507 12.254 31.328C12.1807 31.0053 12.1807 30.6607 12.254 30.294L13.31 24.31H9.68L8.602 30.624C8.52867 31.0493 8.38933 31.416 8.184 31.724C7.99333 32.0173 7.75867 32.2593 7.48 32.45C7.216 32.6407 6.91533 32.78 6.578 32.868C6.25533 32.956 5.918 33 5.566 33H2.53L4.07 24.31H2.134C1.44467 24.31 0.953333 24.112 0.66 23.716C0.366667 23.3053 0.300667 22.616 0.462 21.648L0.814 19.536H4.73L5.632 14.344H1.254L1.782 11.572C1.914 10.8973 2.2 10.3987 2.64 10.076C3.09467 9.75333 3.806 9.592 4.774 9.592H6.27L7.414 3.146C7.546 2.45667 7.876 1.92133 8.404 1.54C8.94667 1.144 9.57 0.946 10.274 0.946H13.398L11.858 9.592H15.51L17.05 0.946H20.086C20.438 0.946 20.7533 1.00467 21.032 1.122C21.3253 1.23933 21.5673 1.40066 21.758 1.606C21.9633 1.79667 22.11 2.03133 22.198 2.31C22.286 2.574 22.3007 2.86733 22.242 3.19L21.098 9.592H25.366ZM38.2394 27.962C38.9434 27.962 39.5961 27.83 40.1974 27.566C40.8134 27.302 41.3414 26.9427 41.7814 26.488C42.2214 26.0187 42.5661 25.476 42.8154 24.86C43.0794 24.2293 43.2114 23.5473 43.2114 22.814C43.2114 21.9927 43.0868 21.2593 42.8374 20.614C42.6028 19.9687 42.2654 19.426 41.8254 18.986C41.3854 18.546 40.8501 18.2087 40.2194 17.974C39.6034 17.7393 38.9141 17.622 38.1514 17.622C37.4621 17.622 36.8314 17.7467 36.2594 17.996C35.6874 18.2307 35.1888 18.5753 34.7634 19.03C34.3528 19.4847 34.0301 20.0273 33.7954 20.658C33.5608 21.2887 33.4434 22 33.4434 22.792C33.4434 23.584 33.5388 24.2953 33.7294 24.926C33.9201 25.5567 34.2134 26.0993 34.6094 26.554C35.0054 27.0087 35.5041 27.3607 36.1054 27.61C36.7068 27.8447 37.4181 27.962 38.2394 27.962ZM37.1394 13.266C38.1661 12.8847 39.3101 12.694 40.5714 12.694C41.7301 12.694 42.8741 12.8847 44.0034 13.266C45.1328 13.6473 46.1448 14.234 47.0394 15.026C47.9341 15.818 48.6528 16.8227 49.1954 18.04C49.7528 19.2427 50.0314 20.6653 50.0314 22.308C50.0314 23.804 49.7528 25.2267 49.1954 26.576C48.6381 27.9107 47.8461 29.084 46.8194 30.096C45.8074 31.0933 44.5828 31.8853 43.1454 32.472C41.7081 33.0587 40.1168 33.352 38.3714 33.352C36.5821 33.352 34.9761 33.0733 33.5534 32.516C32.1308 31.944 30.9208 31.152 29.9234 30.14C28.9408 29.128 28.1854 27.918 27.6574 26.51C27.1441 25.102 26.8874 23.5547 26.8874 21.868C26.8874 18.7147 28.1048 15.51 30.5394 12.254L37.7554 2.508C38.0928 2.08267 38.5768 1.716 39.2074 1.408C39.8528 1.1 40.5861 0.946 41.4074 0.946H47.4794L37.9754 12.298L37.1394 13.266Z" fill="#D1D5DB"/>
</svg>
