<svg width="319" height="366" viewBox="0 0 319 366" fill="none" xmlns="http://www.w3.org/2000/svg">
<path d="M280.76 101.75C272.31 91.6402 263.42 81.7502 255.32 71.3402C231.6 40.8002 200.4 11.3902 161 3.17017C121.11 -5.14983 73.6299 9.00017 49.5599 43.0002C33.5599 65.5902 27.3099 93.6602 26.7499 121C26.4999 133.48 28.6399 146.09 26.6299 158.5C24.4099 172.15 16.7499 184.12 10.0499 195.95C1.18993 211.6 -2.63007 228.83 2.74993 246.47C14.9199 286.32 69.8699 304.84 107.62 298.17C128.2 294.53 147.06 284.56 167 278.27C183.44 273.08 200.36 271.57 217.07 276.53C255.15 287.83 294.15 268.35 310.28 232.53C329.75 189.29 311.53 140.19 283.64 105.3C282.69 104.08 281.74 102.91 280.76 101.75Z" fill="#319795"/>
<path opacity="0.7" d="M280.76 101.75C272.31 91.6402 263.42 81.7502 255.32 71.3402C231.6 40.8002 200.4 11.3902 161 3.17017C121.11 -5.14983 73.6299 9.00017 49.5599 43.0002C33.5599 65.5902 27.3099 93.6602 26.7499 121C26.4999 133.48 28.6399 146.09 26.6299 158.5C24.4099 172.15 16.7499 184.12 10.0499 195.95C1.18993 211.6 -2.63007 228.83 2.74993 246.47C14.9199 286.32 69.8699 304.84 107.62 298.17C128.2 294.53 147.06 284.56 167 278.27C183.44 273.08 200.36 271.57 217.07 276.53C255.15 287.83 294.15 268.35 310.28 232.53C329.75 189.29 311.53 140.19 283.64 105.3C282.69 104.08 281.74 102.91 280.76 101.75Z" fill="white"/>
<path d="M154.24 365.08C233.123 365.08 297.07 352.723 297.07 337.48C297.07 322.237 233.123 309.88 154.24 309.88C75.3573 309.88 11.4102 322.237 11.4102 337.48C11.4102 352.723 75.3573 365.08 154.24 365.08Z" fill="#319795"/>
<path opacity="0.5" d="M154.24 365.08C233.123 365.08 297.07 352.723 297.07 337.48C297.07 322.237 233.123 309.88 154.24 309.88C75.3573 309.88 11.4102 322.237 11.4102 337.48C11.4102 352.723 75.3573 365.08 154.24 365.08Z" fill="white"/>
<path d="M216.33 219.33H109C106.421 219.33 104.33 221.421 104.33 224V232.66C104.33 235.239 106.421 237.33 109 237.33H216.33C218.909 237.33 221 235.239 221 232.66V224C221 221.421 218.909 219.33 216.33 219.33Z" fill="white"/>
<path d="M216.33 237.83H109C107.631 237.83 106.317 237.287 105.348 236.319C104.379 235.352 103.833 234.04 103.83 232.67V224C103.833 222.63 104.378 221.316 105.347 220.347C106.316 219.378 107.63 218.833 109 218.83H216.33C217.7 218.833 219.014 219.378 219.983 220.347C220.952 221.316 221.497 222.63 221.5 224V232.67C221.497 234.04 220.952 235.352 219.982 236.319C219.013 237.287 217.7 237.83 216.33 237.83ZM109 219.83C107.894 219.83 106.833 220.269 106.051 221.051C105.269 221.833 104.83 222.894 104.83 224V232.67C104.833 233.774 105.273 234.832 106.055 235.612C106.837 236.392 107.896 236.83 109 236.83H216.33C217.434 236.83 218.493 236.392 219.275 235.612C220.057 234.832 220.497 233.774 220.5 232.67V224C220.5 222.894 220.061 221.833 219.279 221.051C218.497 220.269 217.436 219.83 216.33 219.83H109Z" fill="#263238"/>
<path d="M116.33 221.21H109V236H116.33V221.21Z" fill="#319795"/>
<path d="M125.47 221.21H118.14V236H125.47V221.21Z" fill="#319795"/>
<path d="M134.61 221.21H127.28V236H134.61V221.21Z" fill="#319795"/>
<path d="M143.75 221.21H136.42V236H143.75V221.21Z" fill="#319795"/>
<path d="M152.89 221.21H145.56V236H152.89V221.21Z" fill="#319795"/>
<path d="M162.03 221.21H154.7V236H162.03V221.21Z" fill="#319795"/>
<path d="M171.17 221.21H163.84V236H171.17V221.21Z" fill="#319795"/>
<path d="M180.31 221.21H172.98V236H180.31V221.21Z" fill="#319795"/>
<path d="M178.71 96.9996L188.32 92.6196L186.32 81.0796L175.72 80.2596C174.368 76.7208 172.584 73.3621 170.41 70.2596L175.88 61.0296L167.59 52.7396L158.29 58.2696C152.933 54.6229 146.868 52.1458 140.49 50.9996L137.81 40.3696H126.09L123.39 51.0596C119.759 51.7525 116.224 52.8772 112.86 54.4096L104.48 47.1596L94.8902 53.8796L98.8902 64.2496C96.3092 66.883 94.05 69.8135 92.1602 72.9796L81.1602 71.8396L77.1602 82.8396L86.2901 89.0296C85.852 91.5998 85.6312 94.2024 85.6302 96.8096C85.6302 97.9196 85.6301 99.0096 85.7601 100.1L76.1501 105.46L79.1501 116.78L90.0302 116.64C91.6422 120.035 93.6567 123.225 96.0302 126.14L91.3302 135.89L100.33 143.42L109.03 137.19C112.325 139.092 115.841 140.58 119.5 141.62L121.25 152.11L132.92 153.11L136.44 143.18C140.271 142.838 144.043 142.018 147.67 140.74L155.03 148.23L165.18 142.37L162.39 132.28C165.332 129.78 167.952 126.925 170.19 123.78L180.5 125.68L185.5 115.07L177.41 108.39C178.315 104.662 178.752 100.836 178.71 96.9996V96.9996ZM161.38 96.7996C161.38 102.585 159.665 108.24 156.451 113.05C153.237 117.86 148.668 121.609 143.324 123.823C137.979 126.037 132.098 126.616 126.424 125.488C120.75 124.359 115.538 121.573 111.447 117.483C107.357 113.392 104.571 108.18 103.442 102.506C102.314 96.8321 102.893 90.9509 105.107 85.6061C107.321 80.2614 111.07 75.6932 115.88 72.4791C120.69 69.2651 126.345 67.5496 132.13 67.5496C135.972 67.5496 139.777 68.3065 143.326 69.7771C146.875 71.2477 150.1 73.4031 152.817 76.1203C155.533 78.8375 157.687 82.0631 159.156 85.6131C160.626 89.163 161.381 92.9676 161.38 96.8096V96.7996Z" fill="#319795"/>
<path d="M132.82 153.67L121.15 152.67C121.03 152.66 120.917 152.611 120.828 152.529C120.739 152.448 120.68 152.339 120.66 152.22L118.92 142C115.436 140.99 112.081 139.581 108.92 137.8L100.5 143.8C100.406 143.875 100.29 143.915 100.17 143.915C100.05 143.915 99.934 143.875 99.8402 143.8L90.8402 136.27C90.7477 136.193 90.6837 136.087 90.6583 135.969C90.633 135.851 90.6477 135.728 90.7002 135.62L95.2402 126.17C93.0192 123.392 91.1172 120.373 89.5702 117.17L79.0402 117.3C78.9191 117.306 78.7999 117.269 78.7031 117.196C78.6063 117.123 78.5381 117.018 78.5102 116.9L75.5102 105.58C75.4769 105.465 75.4835 105.342 75.5288 105.231C75.5742 105.121 75.6558 105.028 75.7602 104.97L85.0702 99.77C85.0002 98.65 84.9702 97.7 84.9702 96.77C84.9712 94.2477 85.1752 91.7295 85.5802 89.24L76.7302 83.24C76.631 83.1703 76.5576 83.0697 76.5214 82.954C76.4853 82.8382 76.4884 82.7138 76.5302 82.6L80.5302 71.6C80.5749 71.4881 80.6546 71.3936 80.7572 71.3305C80.8599 71.2675 80.9802 71.2392 81.1002 71.25L91.7902 72.35C93.6014 69.3606 95.7414 66.5834 98.1702 64.07L94.3402 54.02C94.2954 53.9081 94.2908 53.784 94.3273 53.6691C94.3637 53.5542 94.439 53.4555 94.5402 53.39L104.13 46.67C104.226 46.5945 104.344 46.5535 104.465 46.5535C104.587 46.5535 104.705 46.5945 104.8 46.67L112.91 53.67C116.115 52.2442 119.469 51.1809 122.91 50.5L125.52 40.14C125.553 40.0236 125.622 39.9208 125.717 39.847C125.813 39.7731 125.93 39.732 126.05 39.73H137.77C137.89 39.7309 138.006 39.7717 138.1 39.8459C138.195 39.9202 138.261 40.0236 138.29 40.14L140.89 50.43C147.093 51.5914 152.996 54 158.24 57.51L167.24 52.16C167.343 52.096 167.464 52.0691 167.584 52.0836C167.704 52.0982 167.816 52.1533 167.9 52.24L176.18 60.52C176.264 60.6062 176.317 60.7174 176.331 60.8365C176.346 60.9557 176.321 61.0763 176.26 61.18L171 70.2C173.044 73.183 174.738 76.3906 176.05 79.76L186.31 80.55C186.43 80.5595 186.544 80.609 186.633 80.6906C186.722 80.7721 186.781 80.881 186.8 81L188.8 92.54C188.819 92.6585 188.798 92.7799 188.743 92.8861C188.687 92.9923 188.598 93.0778 188.49 93.13L179.19 97.36C179.154 101.018 178.691 104.659 177.81 108.21L185.63 114.67C185.722 114.745 185.787 114.849 185.814 114.965C185.841 115.08 185.829 115.202 185.78 115.31L180.83 125.93C180.779 126.039 180.694 126.129 180.588 126.185C180.481 126.241 180.359 126.26 180.24 126.24L170.24 124.4C168.083 127.37 165.593 130.084 162.82 132.49L165.51 142.24C165.542 142.356 165.535 142.48 165.49 142.592C165.445 142.704 165.364 142.798 165.26 142.86L155.11 148.72C155.007 148.777 154.887 148.799 154.77 148.783C154.653 148.766 154.545 148.713 154.46 148.63L147.33 141.39C143.869 142.575 140.282 143.35 136.64 143.7L133.24 153.31C133.208 153.402 133.153 153.483 133.079 153.547C133.005 153.61 132.916 153.652 132.82 153.67V153.67ZM121.61 151.61L132.45 152.55L135.83 143.01C135.864 142.913 135.925 142.827 136.007 142.765C136.089 142.703 136.188 142.666 136.29 142.66C140.076 142.322 143.805 141.512 147.39 140.25C147.488 140.216 147.593 140.21 147.694 140.233C147.795 140.256 147.887 140.307 147.96 140.38L155.03 147.57L164.45 142.13L161.77 132.44C161.741 132.342 161.742 132.237 161.772 132.139C161.802 132.041 161.861 131.955 161.94 131.89C164.844 129.416 167.434 126.595 169.65 123.49C169.71 123.405 169.792 123.34 169.888 123.301C169.984 123.262 170.089 123.251 170.19 123.27L180.08 125.09L184.68 115.24L176.92 108.83C176.837 108.766 176.776 108.678 176.743 108.578C176.711 108.478 176.71 108.371 176.74 108.27C177.679 104.587 178.16 100.801 178.17 97C178.171 96.8962 178.201 96.7948 178.258 96.7079C178.315 96.621 178.395 96.5523 178.49 96.51L187.72 92.3L185.83 81.59L175.64 80.8C175.538 80.7924 175.44 80.7553 175.358 80.6932C175.277 80.6311 175.215 80.5466 175.18 80.45C173.848 76.9407 172.088 73.6089 169.94 70.53C169.884 70.4418 169.854 70.3395 169.854 70.235C169.854 70.1305 169.884 70.0282 169.94 69.94L175.19 61.07L167.5 53.38L158.56 58.69C158.474 58.7463 158.373 58.7764 158.27 58.7764C158.167 58.7764 158.066 58.7463 157.98 58.69C152.691 55.1025 146.71 52.6634 140.42 51.53C140.318 51.5119 140.222 51.4645 140.146 51.3935C140.07 51.3226 140.016 51.231 139.99 51.13L137.4 40.91H126.51L123.92 51.2C123.894 51.3005 123.839 51.3914 123.763 51.4622C123.687 51.533 123.592 51.5807 123.49 51.6C119.902 52.2827 116.407 53.3905 113.08 54.9C112.986 54.9438 112.881 54.9596 112.778 54.9454C112.676 54.9312 112.579 54.8877 112.5 54.82L104.45 47.82L95.5402 54.05L99.3502 64.05C99.3868 64.1465 99.3949 64.2515 99.3737 64.3525C99.3524 64.4536 99.3026 64.5464 99.2302 64.62C96.6838 67.2268 94.4519 70.1232 92.5802 73.25C92.5265 73.3376 92.4493 73.4083 92.3574 73.4543C92.2655 73.5002 92.1625 73.5195 92.0602 73.51L81.4502 72.42L77.7302 82.64L86.5102 88.64C86.5975 88.6973 86.6659 88.7792 86.7068 88.8752C86.7477 88.9713 86.7594 89.0773 86.7402 89.18C86.3121 91.721 86.0947 94.2931 86.0902 96.87C86.0902 97.87 86.0902 98.87 86.2202 100.12C86.2248 100.222 86.201 100.324 86.1517 100.414C86.1023 100.504 86.0292 100.579 85.9402 100.63L76.7002 105.79L79.5202 116.29L90.0002 116.1C90.1029 116.1 90.2036 116.129 90.2904 116.184C90.3772 116.239 90.4465 116.317 90.4902 116.41C92.071 119.766 94.0521 122.919 96.3902 125.8C96.4543 125.879 96.4949 125.974 96.5073 126.075C96.5197 126.176 96.5034 126.278 96.4602 126.37L91.9402 135.75L100.27 142.75L108.63 136.75C108.718 136.694 108.821 136.664 108.925 136.664C109.03 136.664 109.132 136.694 109.22 136.75C112.48 138.622 115.955 140.09 119.57 141.12C119.669 141.147 119.759 141.202 119.828 141.278C119.897 141.354 119.943 141.449 119.96 141.55L121.61 151.61ZM132.13 126.61C126.239 126.608 120.48 124.859 115.583 121.585C110.685 118.31 106.868 113.657 104.615 108.213C102.362 102.77 101.773 96.7801 102.924 91.0021C104.074 85.2241 106.912 79.9169 111.079 75.7517C115.246 71.5865 120.554 68.7503 126.332 67.6017C132.111 66.453 138.1 67.0435 143.543 69.2986C148.986 71.5536 153.637 75.3719 156.91 80.2706C160.183 85.1693 161.93 90.9285 161.93 96.82C161.917 104.718 158.772 112.288 153.186 117.87C147.6 123.453 140.028 126.592 132.13 126.6V126.61ZM132.13 68.11C126.452 68.11 120.901 69.7938 116.18 72.9485C111.458 76.1032 107.779 80.5871 105.606 85.8331C103.433 91.0792 102.864 96.8518 103.972 102.421C105.08 107.99 107.814 113.106 111.829 117.121C115.844 121.136 120.96 123.871 126.529 124.978C132.098 126.086 137.871 125.518 143.117 123.345C148.363 121.172 152.847 117.492 156.002 112.77C159.156 108.049 160.84 102.498 160.84 96.82C160.835 89.2063 157.809 81.9059 152.426 76.5212C147.043 71.1366 139.744 68.1079 132.13 68.1V68.11Z" fill="#263238"/>
<path d="M68.0601 119.84C67.7168 119.839 67.3827 119.729 67.1059 119.526C66.8291 119.323 66.624 119.037 66.5201 118.71C65.4359 115.338 64.6135 111.888 64.0601 108.39C63.9938 107.964 64.0993 107.53 64.3535 107.182C64.6076 106.834 64.9895 106.601 65.4151 106.535C65.8408 106.469 66.2754 106.574 66.6233 106.828C66.9711 107.082 67.2038 107.464 67.2701 107.89C67.7989 111.221 68.5812 114.508 69.6101 117.72C69.7273 118.124 69.6835 118.559 69.4877 118.931C69.292 119.304 68.9596 119.587 68.5601 119.72C68.4019 119.789 68.2326 119.83 68.0601 119.84Z" fill="#263238"/>
<path d="M64.8702 101C64.4464 101 64.0393 100.835 63.735 100.54C63.4307 100.245 63.2532 99.8433 63.2402 99.4198C63.2402 98.7898 63.2402 98.1598 63.2402 97.5298C63.2437 83.3907 67.5751 69.5916 75.6522 57.9867C83.7294 46.3819 95.1652 37.5276 108.423 32.6136C121.681 27.6997 136.125 26.9617 149.814 30.4988C163.504 34.0359 175.782 41.6786 185 52.3998C185.139 52.5613 185.245 52.7487 185.312 52.9512C185.379 53.1537 185.405 53.3673 185.39 53.58C185.374 53.7926 185.316 54.0001 185.22 54.1905C185.124 54.3809 184.992 54.5506 184.83 54.6898C184.669 54.829 184.481 54.935 184.279 55.0018C184.076 55.0686 183.863 55.0948 183.65 55.0791C183.437 55.0633 183.23 55.0057 183.04 54.9098C182.849 54.8138 182.679 54.6813 182.54 54.5198C173.758 44.2933 162.055 37.0013 149.004 33.6243C135.954 30.2473 122.183 30.9473 109.542 35.6302C96.9018 40.3131 85.9983 48.7543 78.298 59.8186C70.5978 70.8829 66.4702 84.0397 66.4702 97.5198C66.4702 98.1198 66.4702 98.7198 66.4702 99.3198C66.4769 99.5334 66.4412 99.7461 66.3653 99.9459C66.2894 100.146 66.1747 100.328 66.0278 100.484C65.8809 100.639 65.7048 100.763 65.5096 100.85C65.3143 100.937 65.1039 100.985 64.8902 100.99L64.8702 101Z" fill="#263238"/>
<path d="M188.31 47.3198L190.1 62.1198L176.39 56.2798L188.31 47.3198Z" fill="#263238"/>
<path d="M258.22 149.69L266.43 147.24L264.31 135.24L255.7 135.76C254.576 132.804 253.095 129.996 251.29 127.4L256.7 120.58L248.08 112L241.2 117.46C236.746 114.45 231.711 112.406 226.42 111.46L225.42 102.62H213.22L212.22 111.52C209.196 112.094 206.252 113.027 203.45 114.3L197.45 107.57L187.45 114.57L191.74 122.5C189.593 124.69 187.713 127.127 186.14 129.76L177.38 127.67L173.24 139L181.24 143C180.873 145.137 180.689 147.301 180.69 149.47C180.69 150.39 180.69 151.3 180.8 152.21L172.49 155.49L175.64 167.26L184.37 165.97C185.711 168.796 187.39 171.448 189.37 173.87L184.53 181.2L193.87 189.03L200.17 183.03C202.915 184.609 205.843 185.845 208.89 186.71L209.12 195.33L221.26 196.39L222.98 188.02C226.164 187.742 229.301 187.07 232.32 186.02L237.39 192.85L247.94 186.76L244.57 178.98C247.012 176.895 249.191 174.521 251.06 171.91L259.12 174.59L264.27 163.59L257 159.17C257.799 156.073 258.209 152.888 258.22 149.69ZM243.8 149.52C243.8 154.334 242.372 159.04 239.697 163.043C237.022 167.046 233.22 170.166 228.772 172.008C224.324 173.85 219.429 174.331 214.708 173.391C209.986 172.451 205.649 170.132 202.245 166.727C198.842 163.322 196.524 158.984 195.586 154.262C194.648 149.54 195.132 144.646 196.975 140.198C198.819 135.751 201.94 131.95 205.944 129.277C209.948 126.603 214.655 125.178 219.47 125.18C222.666 125.18 225.83 125.809 228.783 127.033C231.735 128.256 234.418 130.049 236.677 132.309C238.937 134.57 240.729 137.253 241.951 140.206C243.173 143.159 243.801 146.324 243.8 149.52V149.52Z" fill="#319795"/>
<path d="M221.25 197H221.2L209.07 196C208.937 195.99 208.812 195.931 208.72 195.835C208.628 195.739 208.574 195.613 208.57 195.48L208.35 187.25C205.526 186.419 202.806 185.271 200.24 183.83L194.24 189.52C194.141 189.608 194.013 189.657 193.88 189.657C193.747 189.657 193.619 189.608 193.52 189.52L184.18 181.69C184.078 181.602 184.012 181.481 183.994 181.348C183.975 181.216 184.006 181.081 184.08 180.97L188.7 173.97C186.898 171.7 185.351 169.238 184.09 166.63L175.75 167.87C175.618 167.891 175.482 167.861 175.371 167.787C175.26 167.713 175.181 167.6 175.15 167.47L172 155.68C171.966 155.551 171.982 155.415 172.042 155.296C172.103 155.178 172.206 155.087 172.33 155.04L180.27 151.9C180.21 151.01 180.19 150.25 180.19 149.52C180.19 147.453 180.354 145.39 180.68 143.35L173 139.52C172.88 139.461 172.786 139.36 172.736 139.236C172.686 139.113 172.684 138.975 172.73 138.85L176.9 127.4C176.949 127.276 177.04 127.174 177.157 127.112C177.275 127.05 177.41 127.031 177.54 127.06L185.91 129.06C187.392 126.635 189.132 124.379 191.1 122.33L187 114.75C186.937 114.632 186.92 114.496 186.951 114.367C186.982 114.238 187.06 114.125 187.17 114.05L197.17 107.05C197.279 106.972 197.414 106.939 197.547 106.956C197.68 106.972 197.802 107.038 197.89 107.14L203.59 113.57C206.191 112.419 208.91 111.557 211.7 111L212.7 102.5C212.717 102.368 212.781 102.247 212.88 102.158C212.979 102.07 213.107 102.021 213.24 102.02H225.43C225.561 102.021 225.688 102.071 225.786 102.159C225.883 102.248 225.945 102.369 225.96 102.5L226.96 110.95C232.053 111.916 236.901 113.891 241.22 116.76L247.79 111.55C247.89 111.463 248.017 111.415 248.15 111.415C248.282 111.415 248.41 111.463 248.51 111.55L257.12 120.17C257.208 120.269 257.257 120.397 257.257 120.53C257.257 120.662 257.208 120.791 257.12 120.89L251.96 127.39C253.616 129.818 254.994 132.424 256.07 135.16L264.28 134.67C264.413 134.662 264.545 134.704 264.65 134.787C264.754 134.87 264.826 134.988 264.85 135.12L266.96 147.12C266.985 147.25 266.959 147.386 266.889 147.499C266.818 147.612 266.708 147.694 266.58 147.73L258.76 150.06C258.72 153.036 258.344 155.998 257.64 158.89L264.54 163.13C264.652 163.2 264.735 163.309 264.774 163.435C264.812 163.562 264.804 163.699 264.75 163.82L259.6 174.82C259.543 174.939 259.445 175.034 259.324 175.088C259.203 175.141 259.066 175.149 258.94 175.11L251.25 172.55C249.503 174.961 247.491 177.169 245.25 179.13L248.46 186.55C248.512 186.67 248.519 186.806 248.478 186.931C248.438 187.056 248.353 187.162 248.24 187.23L237.68 193.32C237.567 193.388 237.432 193.411 237.303 193.385C237.173 193.359 237.058 193.286 236.98 193.18L232.14 186.66C229.324 187.615 226.409 188.246 223.45 188.54L221.81 196.54C221.79 196.672 221.722 196.792 221.618 196.877C221.515 196.962 221.383 197.006 221.25 197V197ZM209.64 194.89L220.82 195.89L222.43 187.99C222.455 187.875 222.516 187.771 222.604 187.694C222.692 187.617 222.803 187.57 222.92 187.56C226.061 187.276 229.154 186.604 232.13 185.56C232.24 185.521 232.359 185.519 232.471 185.553C232.582 185.588 232.68 185.656 232.75 185.75L237.53 192.19L247.25 186.58L244.06 179.24C244.016 179.132 244.008 179.014 244.034 178.901C244.061 178.788 244.123 178.686 244.21 178.61C246.625 176.554 248.772 174.202 250.6 171.61C250.67 171.517 250.767 171.448 250.878 171.412C250.989 171.376 251.108 171.376 251.22 171.41L258.82 173.95L263.56 163.78L256.73 159.58C256.632 159.518 256.555 159.426 256.512 159.318C256.469 159.211 256.461 159.092 256.49 158.98C257.273 155.924 257.673 152.784 257.68 149.63C257.68 149.514 257.718 149.401 257.789 149.309C257.859 149.217 257.958 149.15 258.07 149.12L265.81 146.81L263.86 135.76L255.74 136.25C255.624 136.259 255.508 136.229 255.411 136.166C255.313 136.103 255.239 136.009 255.2 135.9C254.089 132.987 252.629 130.22 250.85 127.66C250.78 127.567 250.742 127.455 250.742 127.34C250.742 127.224 250.78 127.112 250.85 127.02L255.95 120.58L248 112.69L241.5 117.85C241.408 117.919 241.295 117.957 241.18 117.957C241.064 117.957 240.952 117.919 240.86 117.85C236.474 114.868 231.51 112.844 226.29 111.91C226.176 111.889 226.071 111.832 225.992 111.747C225.913 111.663 225.863 111.555 225.85 111.44L224.85 103.07H213.7L212.7 111.49C212.69 111.604 212.643 111.713 212.565 111.798C212.487 111.883 212.383 111.94 212.27 111.96C209.29 112.528 206.39 113.451 203.63 114.71C203.523 114.756 203.405 114.767 203.292 114.742C203.179 114.716 203.077 114.656 203 114.57L197.35 108.21L188.16 114.64L192.22 122.14C192.273 122.242 192.292 122.359 192.276 122.474C192.26 122.588 192.209 122.695 192.13 122.78C190.01 124.937 188.157 127.341 186.61 129.94C186.547 130.037 186.456 130.114 186.349 130.158C186.242 130.203 186.123 130.214 186.01 130.19L177.72 128.19L173.89 138.73L181.47 142.52C181.573 142.573 181.657 142.658 181.709 142.762C181.761 142.866 181.779 142.985 181.76 143.1C181.403 145.207 181.222 147.342 181.22 149.48C181.22 150.29 181.22 151.15 181.33 152.18C181.336 152.294 181.307 152.407 181.246 152.504C181.185 152.601 181.095 152.676 180.99 152.72L173.13 155.83L176.03 166.66L184.28 165.44C184.395 165.422 184.514 165.443 184.616 165.499C184.719 165.555 184.801 165.643 184.85 165.75C186.166 168.533 187.811 171.148 189.75 173.54C189.818 173.632 189.855 173.744 189.855 173.86C189.855 173.975 189.818 174.087 189.75 174.18L185.18 181.11L193.77 188.32L199.77 182.69C199.853 182.608 199.96 182.555 200.076 182.541C200.192 182.527 200.309 182.551 200.41 182.61C203.112 184.17 205.997 185.389 209 186.24C209.111 186.269 209.21 186.334 209.282 186.424C209.354 186.514 209.395 186.624 209.4 186.74L209.64 194.89ZM219.47 174.37C214.549 174.37 209.739 172.91 205.647 170.176C201.556 167.443 198.367 163.557 196.484 159.011C194.6 154.464 194.108 149.462 195.068 144.636C196.028 139.809 198.397 135.376 201.877 131.897C205.356 128.417 209.79 126.048 214.616 125.088C219.442 124.128 224.445 124.62 228.991 126.503C233.537 128.387 237.423 131.575 240.157 135.667C242.891 139.758 244.35 144.569 244.35 149.49C244.35 156.091 241.729 162.422 237.064 167.093C232.399 171.764 226.071 174.392 219.47 174.4V174.37ZM219.47 125.69C214.762 125.688 210.16 127.082 206.244 129.696C202.329 132.31 199.277 136.026 197.474 140.375C195.671 144.723 195.199 149.509 196.116 154.127C197.033 158.744 199.299 162.986 202.627 166.315C205.955 169.645 210.196 171.912 214.813 172.831C219.43 173.751 224.216 173.28 228.565 171.479C232.915 169.678 236.632 166.627 239.248 162.713C241.864 158.799 243.26 154.197 243.26 149.49C243.244 143.187 240.732 137.147 236.273 132.692C231.814 128.237 225.773 125.73 219.47 125.72V125.69Z" fill="#263238"/>
<path d="M219.08 208.649C205.635 208.616 192.617 203.927 182.24 195.379C181.908 195.105 181.699 194.71 181.659 194.281C181.619 193.853 181.75 193.426 182.025 193.094C182.299 192.763 182.694 192.554 183.123 192.514C183.551 192.473 183.978 192.605 184.31 192.879C193.921 200.826 205.961 205.248 218.431 205.412C230.901 205.576 243.053 201.473 252.87 193.782C262.688 186.091 269.582 175.276 272.408 163.129C275.234 150.982 273.824 138.234 268.41 126.999C268.298 126.805 268.228 126.59 268.204 126.367C268.179 126.145 268.201 125.92 268.267 125.706C268.334 125.492 268.443 125.294 268.59 125.125C268.736 124.955 268.915 124.817 269.117 124.72C269.319 124.623 269.539 124.569 269.762 124.56C269.986 124.552 270.209 124.589 270.418 124.671C270.626 124.753 270.816 124.876 270.974 125.034C271.133 125.192 271.257 125.381 271.34 125.589C275.594 134.425 277.535 144.197 276.982 153.988C276.429 163.779 273.399 173.269 268.176 181.57C262.954 189.87 255.71 196.709 247.123 201.445C238.535 206.181 228.886 208.66 219.08 208.649Z" fill="#263238"/>
<path d="M264.38 132.019L264.33 117.109L277.26 124.519L264.38 132.019Z" fill="#263238"/>
<path d="M81.67 350.33C110.207 350.33 133.34 344.51 133.34 337.33C133.34 330.15 110.207 324.33 81.67 324.33C53.1334 324.33 30 330.15 30 337.33C30 344.51 53.1334 350.33 81.67 350.33Z" fill="#263238"/>
<path d="M190.52 326.51C190.52 325.93 190.59 325.35 190.59 324.75C190.59 310.75 177.44 299.43 161.21 299.43C144.98 299.43 131.82 310.77 131.82 324.75C131.82 325.35 131.82 325.93 131.9 326.51H190.52Z" fill="white"/>
<path d="M190.52 327.06H131.9C131.763 327.06 131.632 327.009 131.532 326.916C131.431 326.824 131.37 326.696 131.36 326.56C131.31 325.88 131.28 325.3 131.28 324.75C131.28 310.49 144.71 298.89 161.21 298.89C177.71 298.89 191.14 310.49 191.14 324.75C191.14 325.3 191.14 325.87 191.06 326.56C191.048 326.695 190.986 326.821 190.886 326.914C190.786 327.006 190.656 327.058 190.52 327.06V327.06ZM132.4 326H190C190 325.56 190 325.16 190 324.78C190 311.12 177.06 300 161.16 300C145.26 300 132.31 311.12 132.31 324.78C132.36 325.14 132.38 325.53 132.4 326Z" fill="#263238"/>
<path d="M190.52 328.92C190.52 328.34 190.59 327.75 190.59 327.16C190.59 313.16 177.44 301.84 161.21 301.84C144.98 301.84 131.82 313.18 131.82 327.16C131.82 327.75 131.82 328.34 131.9 328.92H190.52Z" fill="#263238"/>
<path d="M190.52 329.46H131.9C131.765 329.46 131.635 329.41 131.535 329.32C131.435 329.229 131.373 329.104 131.36 328.97C131.31 328.28 131.28 327.71 131.28 327.16C131.28 312.9 144.71 301.3 161.21 301.3C177.71 301.3 191.14 312.9 191.14 327.16C191.14 327.71 191.14 328.28 191.06 328.97C191.048 329.104 190.985 329.229 190.885 329.32C190.785 329.41 190.655 329.46 190.52 329.46ZM132.4 328.38H190C190 327.94 190 327.54 190 327.16C190 313.5 177.06 302.38 161.16 302.38C145.26 302.38 132.31 313.5 132.31 327.16C132.36 327.54 132.38 327.94 132.4 328.38V328.38Z" fill="#263238"/>
<path d="M98.0701 165.55L118.28 197.5L140.49 185L141.84 195.84C141.84 195.84 120.45 212.67 117.47 214C114.49 215.33 109.07 214.55 107.72 212.92C106.37 211.29 95.0001 171 95.0001 171C95.0001 171 93.0001 163.39 98.0701 165.55Z" fill="white"/>
<path d="M113.66 215.25C111.04 215.25 108.33 214.53 107.3 213.25C105.91 211.58 95.63 175.25 94.47 171.07C94.34 170.6 93.35 166.54 95.04 165.07C95.79 164.43 96.88 164.4 98.28 165C98.3811 165.041 98.4656 165.115 98.52 165.21L118.46 196.73L140.22 184.52C140.298 184.478 140.386 184.456 140.475 184.456C140.564 184.456 140.652 184.478 140.73 184.52C140.809 184.562 140.878 184.621 140.93 184.694C140.982 184.767 141.017 184.851 141.03 184.94L142.38 195.77C142.392 195.862 142.381 195.956 142.346 196.042C142.31 196.128 142.253 196.203 142.18 196.26C141.3 196.95 120.69 213.11 117.69 214.48C116.414 215.011 115.042 215.273 113.66 215.25V215.25ZM96.49 165.7C96.2226 165.689 95.96 165.774 95.75 165.94C94.86 166.71 95.13 169.35 95.51 170.83C100.04 186.89 107.14 211.29 108.14 212.6C109.32 214.01 114.5 214.78 117.24 213.53C119.98 212.28 138.9 197.53 141.24 195.64L140.02 185.91L118.54 198C118.419 198.067 118.276 198.084 118.142 198.049C118.008 198.014 117.893 197.928 117.82 197.81L97.7 166C97.3178 165.829 96.908 165.727 96.49 165.7V165.7Z" fill="#263238"/>
<path d="M139.41 183.42L123.97 193.17L132.18 209.15L145.09 195.07L143.74 180.17L139.41 183.42Z" fill="#319795"/>
<path d="M132.18 209.69H132.11C132.025 209.675 131.944 209.641 131.873 209.591C131.802 209.541 131.743 209.475 131.7 209.4L123.49 193.4C123.426 193.279 123.41 193.139 123.446 193.008C123.481 192.876 123.565 192.762 123.68 192.69L139.1 183L143.41 179.77C143.487 179.71 143.578 179.672 143.675 179.66C143.771 179.648 143.869 179.662 143.958 179.701C144.047 179.74 144.124 179.802 144.181 179.881C144.237 179.96 144.272 180.053 144.28 180.15L145.63 195.05C145.64 195.124 145.632 195.2 145.608 195.271C145.584 195.342 145.543 195.407 145.49 195.46L132.58 209.55C132.526 209.599 132.463 209.637 132.394 209.661C132.326 209.685 132.253 209.695 132.18 209.69V209.69ZM124.68 193.36L132.31 208.21L144.53 194.88L143.29 181.19L139.73 183.85L124.68 193.36Z" fill="#263238"/>
<path d="M75.7 240.32L113.4 278.21C113.4 278.21 103.92 287.15 97.1499 294.74C90.3799 302.33 79.28 312.07 79.28 312.07L83.07 316.67C83.07 316.67 126.95 283.67 129.07 281.46C131.19 279.25 131.24 274.96 130.7 269.28C130.16 263.6 114.18 218.9 114.18 218.9L75.7 240.32Z" fill="#263238"/>
<path d="M83.0699 317.22C82.9895 317.219 82.9103 317.201 82.8377 317.166C82.7652 317.132 82.701 317.082 82.6499 317.02L78.8599 312.41C78.7704 312.302 78.7266 312.163 78.7378 312.023C78.749 311.883 78.8143 311.752 78.9199 311.66C79.0299 311.57 90.0799 301.85 96.7499 294.38C102.67 287.75 110.75 280 112.63 278.2L75.3199 240.7C75.2611 240.642 75.2162 240.571 75.1885 240.493C75.1608 240.415 75.151 240.332 75.1599 240.25C75.1734 240.166 75.2055 240.087 75.254 240.018C75.3025 239.948 75.3661 239.891 75.4399 239.85L114 218.43C114.072 218.398 114.151 218.381 114.23 218.381C114.309 218.381 114.387 218.398 114.46 218.43C114.533 218.46 114.599 218.505 114.654 218.562C114.709 218.619 114.752 218.686 114.78 218.76C115.43 220.58 130.78 263.58 131.33 269.26C131.91 275.38 131.81 279.62 129.55 281.89C127.29 284.16 85.2399 315.8 83.4499 317.15C83.3347 317.215 83.2009 317.24 83.0699 317.22V317.22ZM80.0699 312.13L83.1999 315.93C87.6799 312.55 126.77 283.08 128.77 281.08C130.77 279.08 130.77 274.96 130.24 269.33C129.74 264.13 115.87 225.03 113.96 219.68L76.6299 240.45L113.83 277.83C113.929 277.936 113.986 278.075 113.99 278.22C113.982 278.366 113.922 278.504 113.82 278.61C113.72 278.7 104.28 287.61 97.5999 295.1C91.5599 301.81 82.0699 310.32 79.9999 312.13H80.0699Z" fill="#263238"/>
<path d="M95.8599 289.56L105 305.51L86.4799 315.2C85.8278 317.335 85.8278 319.615 86.4799 321.75C87.6199 324.89 90.4799 328.02 90.7499 329.75C91.0199 331.48 91.3199 332.31 87.6199 332.31C83.9199 332.31 79.9299 329.18 77.9299 326.9C75.9299 324.62 75.6499 318.35 73.9299 315.79C72.2099 313.23 69.3699 309.52 71.6499 306.1C73.9299 302.68 78.4799 302.1 78.4799 302.1L95.8599 289.56Z" fill="#319795"/>
<path d="M87.5999 332.83C83.4999 332.83 79.3299 329.32 77.5099 327.24C76.3499 325.92 75.7499 323.47 75.1699 321.1C74.8542 319.36 74.2848 317.675 73.4799 316.1L73.1099 315.55C71.3199 312.91 68.8699 309.3 71.1999 305.81C73.3799 302.53 77.4499 301.74 78.2699 301.61L95.5399 289.15C95.6013 289.093 95.6742 289.051 95.7535 289.025C95.8329 288.999 95.917 288.99 95.9999 289C96.0736 289.015 96.1431 289.047 96.2035 289.091C96.2639 289.136 96.3139 289.194 96.3499 289.26L105.47 305.26C105.506 305.323 105.528 305.393 105.537 305.465C105.546 305.537 105.54 305.61 105.52 305.68C105.5 305.749 105.466 305.814 105.419 305.869C105.373 305.924 105.315 305.969 105.25 306L86.9299 315.58C86.3711 317.544 86.3919 319.628 86.9899 321.58C87.6457 323.156 88.467 324.658 89.4399 326.06C90.2568 327.142 90.8825 328.357 91.2899 329.65V329.83C91.4299 330.69 91.5599 331.43 91.0599 332.02C90.5599 332.61 89.5999 332.83 87.5999 332.83ZM95.6899 290.35L78.7999 302.53C78.7284 302.587 78.6414 302.622 78.5499 302.63C78.5499 302.63 74.2099 303.22 72.0999 306.38C70.1799 309.26 72.2999 312.38 73.9999 314.91L74.3799 315.47C75.2676 317.155 75.8915 318.966 76.2299 320.84C76.7699 323.08 77.3399 325.4 78.3199 326.52C80.5199 329.04 84.3699 331.75 87.5999 331.75C89.1099 331.75 89.9999 331.6 90.2399 331.31C90.4799 331.02 90.3299 330.62 90.2399 330V329.82C89.8436 328.679 89.2736 327.607 88.5499 326.64C87.5295 325.17 86.6712 323.594 85.9899 321.94C85.2905 319.69 85.2905 317.28 85.9899 315.03C86.0081 314.962 86.0408 314.9 86.0857 314.846C86.1306 314.793 86.1866 314.75 86.2499 314.72L104.25 305.29L95.6899 290.35Z" fill="#263238"/>
<path d="M90.08 332C86.08 330.85 82.37 327.65 79.83 324.16C76.99 320.26 77.7 313.51 74.83 311.03C73.09 309.5 72.95 306.5 73.1 304.42C72.5316 304.894 72.0332 305.446 71.62 306.06C69.34 309.48 72.19 313.19 73.9 315.75C75.61 318.31 75.9 324.58 77.9 326.86C79.9 329.14 83.9 332.27 87.59 332.27C88.4291 332.315 89.2701 332.224 90.08 332Z" fill="#263238"/>
<path d="M87.5999 332.83C83.4999 332.83 79.3299 329.32 77.5099 327.24C76.3499 325.92 75.7499 323.47 75.1699 321.1C74.8542 319.36 74.2848 317.675 73.4799 316.1L73.1099 315.55C71.3199 312.91 68.8699 309.3 71.1999 305.81C71.6419 305.15 72.1775 304.557 72.7899 304.05C72.8712 303.983 72.9701 303.941 73.0747 303.929C73.1793 303.916 73.2852 303.934 73.3799 303.98C73.4765 304.028 73.556 304.105 73.6078 304.2C73.6597 304.295 73.6813 304.403 73.6699 304.51C73.5499 306.2 73.5799 309.24 75.2199 310.67C76.8599 312.1 77.3599 314.59 77.9299 317.26C78.4399 319.64 78.9299 322.1 80.2699 323.89C83.0699 327.74 86.6999 330.52 90.2699 331.53C90.382 331.558 90.4818 331.623 90.554 331.713C90.6262 331.803 90.6669 331.915 90.6699 332.03C90.6713 332.145 90.6376 332.257 90.5732 332.352C90.5088 332.447 90.4169 332.519 90.3099 332.56C89.4279 332.8 88.512 332.891 87.5999 332.83V332.83ZM72.5999 305.83C72.4351 306.015 72.2846 306.212 72.1499 306.42C70.2299 309.3 72.3499 312.42 74.0499 314.95L74.4299 315.51C75.3176 317.195 75.9415 319.006 76.2799 320.88C76.8199 323.12 77.3899 325.44 78.3699 326.56C80.5699 329.08 84.4199 331.79 87.6499 331.79H87.8699C84.4977 330.117 81.5992 327.624 79.4399 324.54C77.9999 322.54 77.4399 319.99 76.9199 317.54C76.3999 315.09 75.9199 312.7 74.5499 311.54C72.9999 310.12 72.5599 307.83 72.5499 305.79L72.5999 305.83Z" fill="#263238"/>
<path d="M72.6001 235.87C72.6001 235.87 79.9101 249.33 85.6001 257.18C93.1801 267.65 106.9 283.63 106.9 283.63L104.74 334.28L111.51 335.09C111.51 335.09 123.7 285.26 123.97 281.19C124.24 277.12 106.36 238.94 106.36 238.94" fill="#263238"/>
<path d="M111.51 335.63H111.44L104.67 334.82C104.534 334.802 104.41 334.734 104.322 334.628C104.235 334.522 104.191 334.387 104.2 334.25L106.35 283.82C104.89 282.1 92.26 267.3 85.16 257.5C79.52 249.71 72.16 236.27 72.16 236.13C72.0926 236.004 72.0779 235.856 72.1192 235.719C72.1604 235.583 72.2542 235.468 72.38 235.4C72.4415 235.365 72.5094 235.342 72.5797 235.334C72.65 235.325 72.7213 235.331 72.7893 235.351C72.8574 235.37 72.9208 235.403 72.9759 235.448C73.031 235.492 73.0766 235.547 73.11 235.61C73.19 235.75 80.48 249.13 86.11 256.86C93.59 267.2 107.25 283.12 107.39 283.28C107.472 283.386 107.518 283.516 107.52 283.65L105.3 333.8L111.1 334.5C112.33 329.42 123.18 284.92 123.43 281.16C123.64 277.94 110.83 249.76 105.87 239.16C105.811 239.03 105.806 238.882 105.854 238.747C105.903 238.613 106.002 238.503 106.13 238.44C106.194 238.409 106.264 238.392 106.335 238.389C106.406 238.385 106.477 238.396 106.544 238.42C106.611 238.444 106.672 238.482 106.725 238.529C106.777 238.577 106.82 238.635 106.85 238.7C108.69 242.62 124.78 277.14 124.51 281.22C124.24 285.3 112.51 333.17 112.03 335.22C112.003 335.337 111.936 335.442 111.842 335.516C111.747 335.591 111.63 335.631 111.51 335.63V335.63Z" fill="#263238"/>
<path d="M123.85 284C123.706 284 123.568 283.943 123.465 283.842C123.362 283.741 123.303 283.604 123.3 283.46C123.24 269.18 117.3 257.8 110.98 245.75L109.81 243.51C109.775 243.436 109.757 243.356 109.757 243.275C109.757 243.194 109.775 243.113 109.81 243.04L113 235.8C113.028 235.734 113.069 235.675 113.12 235.625C113.172 235.575 113.232 235.536 113.299 235.509C113.365 235.483 113.436 235.47 113.507 235.471C113.579 235.472 113.649 235.487 113.715 235.515C113.781 235.543 113.84 235.584 113.89 235.635C113.94 235.687 113.979 235.747 114.006 235.813C114.032 235.88 114.045 235.951 114.044 236.022C114.043 236.094 114.028 236.164 114 236.23L111 243.23L112 245.23C118.37 257.4 124.38 268.89 124.45 283.43C124.45 283.574 124.394 283.713 124.293 283.815C124.192 283.918 124.054 283.977 123.91 283.98L123.85 284Z" fill="white"/>
<path d="M110.75 307H110.69C110.548 306.985 110.419 306.914 110.329 306.804C110.239 306.693 110.196 306.552 110.21 306.41C110.21 306.41 110.34 305.08 110.58 303.19C110.588 303.119 110.609 303.051 110.643 302.988C110.678 302.926 110.724 302.871 110.78 302.828C110.836 302.784 110.901 302.752 110.969 302.733C111.038 302.715 111.11 302.71 111.18 302.72C111.251 302.727 111.319 302.749 111.382 302.783C111.444 302.818 111.499 302.864 111.542 302.92C111.586 302.976 111.618 303.04 111.637 303.109C111.655 303.178 111.66 303.249 111.65 303.32C111.42 305.2 111.29 306.51 111.29 306.52C111.273 306.652 111.209 306.773 111.11 306.861C111.011 306.949 110.883 306.999 110.75 307V307Z" fill="white"/>
<path d="M111.59 300.13H111.52C111.449 300.121 111.381 300.099 111.319 300.063C111.257 300.028 111.203 299.98 111.16 299.923C111.117 299.866 111.086 299.801 111.069 299.732C111.052 299.662 111.049 299.59 111.06 299.52C111.74 294.67 112.38 291.61 112.97 290.43C113.146 290.173 113.268 289.882 113.326 289.576C113.385 289.269 113.379 288.954 113.31 288.65C113.04 288.08 112.04 287.83 111.07 287.59C110.882 287.562 110.707 287.481 110.563 287.357C110.42 287.234 110.315 287.071 110.26 286.89C110.06 286.11 110.96 285.29 112.26 284.05C113.203 283.262 114.043 282.358 114.76 281.36C114.91 281.11 114.87 280.99 114.85 280.95C114.67 280.4 113.23 279.8 111.85 279.23C109.852 278.516 107.982 277.486 106.31 276.18C103.41 273.64 90.4599 253.48 85.0299 244.93C84.9537 244.809 84.9278 244.663 84.9577 244.522C84.9875 244.382 85.0709 244.26 85.1899 244.18C85.2502 244.141 85.3175 244.115 85.388 244.103C85.4585 244.09 85.5307 244.092 85.6005 244.108C85.6703 244.124 85.7362 244.153 85.7945 244.195C85.8528 244.236 85.9022 244.289 85.9399 244.35C97.1999 262.07 105.08 273.67 107.02 275.35C108.6 276.581 110.37 277.547 112.26 278.21C114.18 279.01 115.57 279.58 115.9 280.6C115.968 280.819 115.987 281.05 115.954 281.277C115.921 281.503 115.838 281.72 115.71 281.91C114.945 282.997 114.041 283.979 113.02 284.83C112.412 285.344 111.856 285.917 111.36 286.54C112.56 286.84 113.8 287.16 114.27 288.19C114.423 288.64 114.47 289.119 114.41 289.59C114.349 290.062 114.182 290.513 113.92 290.91C113.55 291.64 112.92 293.76 112.11 299.66C112.091 299.787 112.029 299.903 111.934 299.989C111.84 300.074 111.718 300.124 111.59 300.13V300.13Z" fill="white"/>
<path d="M84.44 243.49C84.3473 243.491 84.256 243.467 84.1753 243.422C84.0946 243.376 84.0273 243.31 83.98 243.23L82.74 241.23C82.6985 241.171 82.6694 241.103 82.6546 241.032C82.6398 240.961 82.6395 240.887 82.6538 240.816C82.6681 240.744 82.6967 240.677 82.7378 240.617C82.7789 240.557 82.8317 240.506 82.8931 240.466C82.9544 240.427 83.023 240.401 83.0948 240.389C83.1666 240.377 83.24 240.38 83.3107 240.397C83.3814 240.414 83.4479 240.446 83.5062 240.489C83.5645 240.533 83.6134 240.587 83.65 240.65L84.89 242.65C84.9291 242.71 84.9559 242.777 84.969 242.847C84.9821 242.917 84.9811 242.989 84.9663 243.059C84.9514 243.128 84.9229 243.194 84.8823 243.253C84.8418 243.312 84.79 243.362 84.73 243.4C84.6445 243.458 84.5435 243.49 84.44 243.49V243.49Z" fill="white"/>
<path d="M103.77 307.62L121.53 309.12L116.71 334.12C117.379 335.551 118.342 336.825 119.536 337.859C120.73 338.892 122.128 339.663 123.64 340.12C128.75 341.62 130.86 342.52 130.86 344.93C130.86 347.34 128.75 347.93 120.33 348.84C111.91 349.75 103.17 346.44 103.17 346.44C103.17 346.44 99.2601 345.83 98.9601 343.13C98.6601 340.43 102.87 332.89 102.87 332.89L103.77 307.62Z" fill="#319795"/>
<path d="M117.26 349.54C112.401 349.469 107.585 348.611 103 347C102.46 346.91 98.72 346.15 98.39 343.23C98.09 340.53 101.64 333.98 102.3 332.79L103.2 307.64C103.203 307.565 103.221 307.492 103.254 307.425C103.287 307.358 103.333 307.298 103.39 307.25C103.444 307.202 103.508 307.166 103.577 307.144C103.645 307.121 103.718 307.113 103.79 307.12L121.55 308.62C121.625 308.626 121.697 308.647 121.763 308.683C121.829 308.72 121.886 308.77 121.93 308.83C121.975 308.891 122.007 308.961 122.024 309.035C122.041 309.109 122.043 309.185 122.03 309.26L117.28 334C117.927 335.324 118.838 336.502 119.958 337.46C121.078 338.418 122.382 339.136 123.79 339.57C128.65 341 131.4 341.95 131.4 344.9C131.4 347.85 128.54 348.48 120.4 349.35C119.357 349.469 118.309 349.532 117.26 349.54V349.54ZM104.26 308.2L103.37 332.91C103.372 332.998 103.347 333.085 103.3 333.16C102.16 335.16 99.23 340.99 99.46 343.07C99.71 345.33 103.18 345.9 103.22 345.9H103.32C103.41 345.9 112.03 349.15 120.23 348.27C128.59 347.38 130.23 346.81 130.23 344.9C130.23 342.99 128.52 342.12 123.39 340.61C121.797 340.131 120.325 339.317 119.071 338.224C117.818 337.131 116.812 335.783 116.12 334.27C116.091 334.172 116.091 334.068 116.12 333.97L120.82 309.58L104.26 308.2Z" fill="#263238"/>
<path d="M120.33 348.84C128.33 347.99 130.63 347.4 130.84 345.27C125.988 346.394 120.984 346.705 116.03 346.19C110.187 345.459 104.504 343.769 99.2101 341.19C99.0091 341.816 98.9244 342.473 98.9601 343.13C99.2601 345.83 103.17 346.44 103.17 346.44C103.17 346.44 111.9 349.75 120.33 348.84Z" fill="#263238"/>
<path d="M117.26 349.54C112.401 349.469 107.585 348.611 103 347C102.46 346.91 98.7199 346.15 98.3899 343.23C98.3514 342.507 98.4394 341.783 98.6499 341.09C98.6716 341.014 98.7097 340.943 98.7615 340.882C98.8133 340.822 98.8776 340.773 98.9499 340.74C99.0228 340.703 99.1033 340.684 99.1849 340.684C99.2666 340.684 99.3471 340.703 99.4199 340.74C104.662 343.286 110.287 344.955 116.07 345.68C120.96 346.205 125.903 345.898 130.69 344.77C130.774 344.751 130.862 344.753 130.946 344.775C131.03 344.798 131.107 344.841 131.17 344.9C131.233 344.956 131.282 345.026 131.313 345.104C131.345 345.182 131.357 345.266 131.35 345.35C131.09 348.01 128.13 348.58 120.35 349.41C119.323 349.507 118.291 349.55 117.26 349.54V349.54ZM99.5799 342C99.4989 342.357 99.4719 342.725 99.4999 343.09C99.7499 345.35 103.22 345.92 103.26 345.92H103.36C103.45 345.92 112.07 349.17 120.27 348.29C126.87 347.59 129.27 347.07 130.04 345.98C125.417 346.987 120.662 347.234 115.96 346.71C110.285 346.016 104.757 344.426 99.5799 342V342Z" fill="#263238"/>
<path d="M72.3799 172.13C72.3799 172.13 51.8299 182.61 47.0999 187.75C42.3699 192.89 46.0999 197.61 47.9199 202.95C49.7399 208.29 73.8499 238.88 75.6999 240.32C77.5499 241.76 86.9999 237.24 99.7499 231.69C112.5 226.14 115.57 223.88 115.57 220.8C115.57 217.72 99.0899 167.8 98.0699 165.55C97.0499 163.3 77.7199 169 72.3799 172.13Z" fill="white"/>
<path d="M76.77 241.13C76.2741 241.162 75.7816 241.028 75.37 240.75C73.92 239.62 49.37 208.75 47.37 203.13C47.01 202.13 46.57 201.07 46.15 200.07C44.42 195.99 42.63 191.76 46.66 187.38C51.38 182.25 71.07 172.16 72.08 171.65C77.14 168.74 94.14 163.53 97.68 164.65C97.8604 164.693 98.0292 164.776 98.1743 164.892C98.3195 165.007 98.4374 165.154 98.52 165.32C99.66 167.82 116.07 217.68 116.07 220.79C116.07 224.25 112.75 226.59 99.92 232.18C98.16 232.94 96.46 233.69 94.84 234.41C85.14 238.7 79.48 241.12 76.77 241.13ZM96.45 165.52C92.2 165.52 77.73 169.66 72.65 172.6C72.45 172.7 52.13 183.09 47.53 188.1C43.97 191.97 45.47 195.52 47.22 199.64C47.65 200.64 48.09 201.7 48.46 202.77C50.39 208.35 74.63 238.77 76.06 239.88C77.49 240.99 85.69 237.28 94.47 233.41L99.56 231.18C111.56 225.95 115.06 223.61 115.06 220.79C115.06 218.15 98.97 168.79 97.6 165.79C97.43 165.6 97 165.52 96.45 165.52V165.52Z" fill="#263238"/>
<path d="M66.7299 213L80.4999 213.55L61.9999 209.93C61.9999 209.93 49.0499 204.14 49.0499 197.25C49.0499 190.36 57.0499 187.89 57.0499 187.89L76.6199 182.65L77.9999 170.53C77.6899 170.53 76.7999 170.53 75.5599 170.61C74.4625 171.049 73.3937 171.557 72.3599 172.13C72.3599 172.13 51.8099 182.61 47.0799 187.75C42.3499 192.89 46.0799 197.61 47.8999 202.95C49.7199 208.29 73.8299 238.88 75.6799 240.32C77.5299 241.76 86.9799 237.24 99.7299 231.69L100.13 231.51C96.4699 232.25 84.7199 235.13 81.0299 231.97C77.1799 228.66 69.1899 220.4 69.1899 220.4L98.9399 220.67L66.7299 213Z" fill="#319795"/>
<path opacity="0.5" d="M66.7299 213L80.4999 213.55L61.9999 209.93C61.9999 209.93 49.0499 204.14 49.0499 197.25C49.0499 190.36 57.0499 187.89 57.0499 187.89L76.6199 182.65L77.9999 170.53C77.6899 170.53 76.7999 170.53 75.5599 170.61C74.4625 171.049 73.3937 171.557 72.3599 172.13C72.3599 172.13 51.8099 182.61 47.0799 187.75C42.3499 192.89 46.0799 197.61 47.8999 202.95C49.7199 208.29 73.8299 238.88 75.6799 240.32C77.5299 241.76 86.9799 237.24 99.7299 231.69L100.13 231.51C96.4699 232.25 84.7199 235.13 81.0299 231.97C77.1799 228.66 69.1899 220.4 69.1899 220.4L98.9399 220.67L66.7299 213Z" fill="white"/>
<path d="M66.6299 175.17C69.1131 178.879 72.329 182.04 76.0799 184.46C82.6499 188.57 86.9699 187.75 89.2299 183.63C91.0799 180.27 88.1199 170.31 86.9799 166.8C81.3099 168.34 75.0699 170.57 72.3799 172.13C72.3799 172.13 69.9999 173.35 66.6299 175.17Z" fill="#263238"/>
<path d="M83.6099 187.7C81.3699 187.7 78.7499 186.77 75.7899 184.92C71.9824 182.45 68.7136 179.235 66.1799 175.47C66.1361 175.408 66.1063 175.338 66.0925 175.264C66.0787 175.19 66.0812 175.113 66.0999 175.04C66.1188 174.966 66.1525 174.897 66.1989 174.837C66.2453 174.777 66.3035 174.727 66.3699 174.69C69.6899 172.89 72.1099 171.69 72.1299 171.64C74.7499 170.13 80.8099 167.92 86.8299 166.27C86.9651 166.235 87.1085 166.253 87.231 166.32C87.3536 166.386 87.4461 166.497 87.4899 166.63C88.7999 170.63 91.6299 180.4 89.6999 183.9C89.2745 184.765 88.6717 185.531 87.9309 186.148C87.1901 186.764 86.3277 187.218 85.3999 187.48C84.8152 187.63 84.2136 187.704 83.6099 187.7V187.7ZM67.4099 175.36C69.8236 178.794 72.8799 181.728 76.4099 184C79.9499 186.21 82.8999 187 85.1799 186.43C85.9642 186.202 86.6919 185.812 87.3155 185.285C87.9392 184.758 88.445 184.105 88.7999 183.37C90.4899 180.32 87.7999 170.98 86.6699 167.46C80.9699 169.04 75.1599 171.17 72.6699 172.6C72.5999 172.62 70.4399 173.72 67.4099 175.36V175.36Z" fill="#263238"/>
<path d="M85.3199 164.32C84.859 164.851 84.512 165.472 84.3004 166.142C84.0888 166.813 84.0172 167.52 84.0899 168.22C84.4999 170.28 86.5599 178.29 86.3499 180.96C86.1399 183.63 83.6799 184.05 78.5399 181.96C73.3999 179.87 70.1199 173.96 69.2899 172.51C68.4599 171.06 65.1799 162.44 65.1799 162.44L67.4399 161C67.4399 161 69.7099 164.49 75.2499 164.49C80.7899 164.49 84.7099 161.61 85.3199 162.85C85.9299 164.09 85.3199 164.32 85.3199 164.32Z" fill="white"/>
<path d="M83.66 183.84C81.82 183.713 80.0179 183.256 78.34 182.49C74.9 181.12 71.73 177.9 68.89 172.93L68.8201 172.81C67.9901 171.35 64.82 163.01 64.68 162.66C64.6366 162.544 64.6338 162.417 64.6719 162.299C64.71 162.181 64.7869 162.079 64.89 162.01L67.15 160.57C67.2713 160.494 67.4175 160.468 67.5575 160.498C67.6976 160.528 67.8205 160.611 67.9 160.73C67.99 160.86 70.09 163.98 75.25 163.98C77.6409 163.911 80.0048 163.455 82.25 162.63C84.01 162.05 85.25 161.63 85.79 162.63C85.9449 162.871 86.0465 163.141 86.0879 163.424C86.1293 163.707 86.1096 163.996 86.03 164.27C85.9558 164.457 85.8269 164.618 85.66 164.73C85.2657 165.192 84.9685 165.728 84.7863 166.307C84.6042 166.886 84.5408 167.496 84.6 168.1C84.69 168.54 84.85 169.24 85.05 170.1C85.79 173.36 87.05 178.81 86.87 180.99C86.8711 181.456 86.7565 181.914 86.5365 182.324C86.3166 182.734 85.9983 183.083 85.61 183.34C85.0219 183.692 84.3447 183.865 83.66 183.84V183.84ZM65.85 162.69C66.51 164.42 69.07 171.06 69.76 172.27L69.83 172.39C72.54 177.15 75.54 180.21 78.74 181.49C82.69 183.06 84.35 182.87 85.06 182.43C85.3008 182.261 85.4954 182.034 85.6264 181.77C85.7573 181.507 85.8205 181.214 85.81 180.92C85.97 178.92 84.69 173.34 84.01 170.35C83.81 169.48 83.65 168.77 83.56 168.35C83.4687 167.567 83.5426 166.774 83.7769 166.021C84.0111 165.268 84.4005 164.573 84.92 163.98C84.956 163.936 85.0001 163.898 85.05 163.87C85.0549 163.611 84.9817 163.357 84.84 163.14C84.0685 163.194 83.3114 163.377 82.6 163.68C80.2422 164.542 77.7597 165.015 75.25 165.08C73.7658 165.148 72.285 164.887 70.9138 164.315C69.5427 163.742 68.3154 162.873 67.3201 161.77L65.85 162.69Z" fill="#263238"/>
<path d="M75.8599 173.3L85.3199 164.3L85.0199 162.61C83.8799 162.2 80.2299 164.5 75.2499 164.5C69.7099 164.5 67.4399 161.01 67.4399 161.01L65.1799 162.45C65.1799 162.45 68.4699 171.08 69.2899 172.52C70.1099 173.96 73.3999 179.92 78.5399 181.97C79.0599 182.18 79.5399 182.36 80.0199 182.51L75.8599 173.3Z" fill="#319795"/>
<path opacity="0.5" d="M75.8599 173.3L85.3199 164.3L85.0199 162.61C83.8799 162.2 80.2299 164.5 75.2499 164.5C69.7099 164.5 67.4399 161.01 67.4399 161.01L65.1799 162.45C65.1799 162.45 68.4699 171.08 69.2899 172.52C70.1099 173.96 73.3999 179.92 78.5399 181.97C79.0599 182.18 79.5399 182.36 80.0199 182.51L75.8599 173.3Z" fill="white"/>
<path d="M56.76 155.68L61.07 161.23L66.62 158.97L62.51 151.37L56.76 155.68Z" fill="#263238"/>
<path d="M61.07 161.77C60.9894 161.771 60.9097 161.753 60.8369 161.718C60.7641 161.684 60.7002 161.633 60.65 161.57L56.33 156C56.2854 155.942 56.2528 155.876 56.2339 155.806C56.215 155.736 56.2103 155.662 56.22 155.59C56.243 155.448 56.3178 155.32 56.43 155.23L62.19 150.92C62.2515 150.872 62.3228 150.838 62.3988 150.821C62.4749 150.804 62.5538 150.803 62.63 150.82C62.7059 150.836 62.7774 150.869 62.8395 150.916C62.9016 150.962 62.953 151.022 62.99 151.09L67.1 158.69C67.1595 158.834 67.1595 158.996 67.1 159.14C67.0757 159.21 67.0362 159.275 66.9844 159.328C66.9326 159.382 66.8696 159.423 66.8 159.45L61.25 161.71C61.1942 161.741 61.1332 161.761 61.07 161.77V161.77ZM57.52 155.77L61.25 160.56L65.86 158.68L62.33 152.16L57.52 155.77Z" fill="#263238"/>
<path d="M64.1599 158C64.1599 158 57.9899 149.77 58.1599 147.31C58.3299 144.85 71.2099 135.5 74.7099 136.12C78.2099 136.74 83.7099 147.2 83.7099 147.2L86.7999 150.29L85.7999 153.17C85.7999 153.17 91.0699 160.46 90.4499 161.49C89.8299 162.52 85.1099 165.39 79.3499 166.63C73.5899 167.87 68.0499 164.16 68.0499 164.16C68.0499 164.16 64.1499 165.8 62.4999 164.78C60.8499 163.76 58.5999 160.05 59.0099 159.23C59.4199 158.41 64.1599 158 64.1599 158Z" fill="white"/>
<path d="M76.91 167.37C73.7646 167.268 70.6989 166.355 68.01 164.72C67.01 165.1 63.85 166.2 62.23 165.19C60.61 164.18 57.89 160.19 58.53 158.94C58.92 158.15 61.09 157.73 63.16 157.5C61.56 155.3 57.47 149.43 57.66 147.21C57.78 145.71 60.99 143.03 62.89 141.56C65.89 139.27 72.18 135.06 74.89 135.56C78.47 136.19 83.5 145.46 84.23 146.85L87.23 149.85C87.3046 149.922 87.3559 150.015 87.3773 150.117C87.3987 150.218 87.3891 150.324 87.35 150.42L86.42 153.03C89.94 157.92 91.42 160.84 90.94 161.71C90.22 162.9 85.34 165.84 79.49 167.1C78.6415 167.278 77.7769 167.368 76.91 167.37ZM68.06 163.57C68.1667 163.569 68.2713 163.6 68.36 163.66C68.42 163.66 73.79 167.22 79.25 166.05C85.14 164.79 89.54 161.92 90 161.16C90.07 160.48 87.66 156.6 85.37 153.44C85.3176 153.369 85.2838 153.286 85.2716 153.199C85.2594 153.111 85.2691 153.022 85.3 152.94L86.21 150.38L83.36 147.54C83.3211 147.497 83.2875 147.45 83.26 147.4C81.77 144.56 77.26 137.07 74.65 136.6C73.03 136.32 68.15 138.87 63.55 142.42C60.31 144.91 58.79 146.7 58.74 147.3C58.6 148.95 62.25 154.51 64.59 157.62C64.6477 157.698 64.6836 157.79 64.6942 157.887C64.7047 157.983 64.6894 158.081 64.65 158.17C64.6111 158.258 64.5484 158.334 64.469 158.389C64.3895 158.444 64.2963 158.475 64.2 158.48C61.95 158.68 59.78 159.12 59.48 159.48C59.38 160.06 61.23 163.32 62.8 164.3C63.95 165.02 66.91 164.04 67.8 163.64C67.879 163.594 67.9687 163.57 68.06 163.57V163.57Z" fill="#263238"/>
<path d="M79.36 166.58C81.6132 166.085 83.806 165.348 85.9 164.38C85.7057 164.371 85.512 164.351 85.32 164.32C82.89 163.83 75.86 162.25 73.14 158.85C71.9411 157.233 70.5734 155.748 69.06 154.42L84.28 147.69L83.74 147.15C83.74 147.15 78.24 136.69 74.74 136.07C71.24 135.45 58.39 144.79 58.19 147.26C57.99 149.73 64.19 157.94 64.19 157.94C64.19 157.94 59.46 158.36 59.05 159.18C58.64 160 60.9 163.7 62.54 164.73C64.18 165.76 68.09 164.11 68.09 164.11C68.09 164.11 73.61 167.81 79.36 166.58Z" fill="#319795"/>
<path opacity="0.5" d="M79.36 166.58C81.6132 166.085 83.806 165.348 85.9 164.38C85.7057 164.371 85.512 164.351 85.32 164.32C82.89 163.83 75.86 162.25 73.14 158.85C71.9411 157.233 70.5734 155.748 69.06 154.42L84.28 147.69L83.74 147.15C83.74 147.15 78.24 136.69 74.74 136.07C71.24 135.45 58.39 144.79 58.19 147.26C57.99 149.73 64.19 157.94 64.19 157.94C64.19 157.94 59.46 158.36 59.05 159.18C58.64 160 60.9 163.7 62.54 164.73C64.18 165.76 68.09 164.11 68.09 164.11C68.09 164.11 73.61 167.81 79.36 166.58Z" fill="white"/>
<path d="M134.85 159.59L157.67 309.41L160.54 309L138.54 159.38C137.324 159.012 136.017 159.086 134.85 159.59V159.59Z" fill="#263238"/>
<path d="M157.67 310C157.54 310.002 157.413 309.956 157.314 309.871C157.215 309.787 157.149 309.669 157.13 309.54L134.32 159.67C134.303 159.547 134.328 159.421 134.392 159.314C134.455 159.207 134.553 159.124 134.67 159.08C135.968 158.521 137.426 158.453 138.77 158.89C138.855 158.927 138.929 158.985 138.985 159.058C139.041 159.132 139.077 159.219 139.09 159.31L161.09 308.92C161.101 308.992 161.098 309.065 161.081 309.135C161.064 309.205 161.033 309.272 160.99 309.33C160.9 309.442 160.772 309.517 160.63 309.54L157.75 309.95L157.67 310ZM135.46 160L158.12 308.8L159.93 308.54L138.07 159.8C137.197 159.638 136.298 159.707 135.46 160Z" fill="#263238"/>
<path d="M135.47 178.09C135.47 178.09 130.95 177.09 130.95 179.73C130.95 182.37 130.54 186.92 132.18 187.95C133.82 188.98 135.88 188.57 136.09 186.1C136.3 183.63 136.09 177.47 135.47 178.09Z" fill="#319795"/>
<path d="M133.88 189C133.169 188.989 132.476 188.777 131.88 188.39C130.23 187.39 130.3 184.02 130.37 181.08C130.37 180.59 130.37 180.13 130.37 179.71C130.358 179.384 130.423 179.06 130.558 178.763C130.693 178.466 130.896 178.205 131.15 178C132.38 177 134.66 177.36 135.37 177.5C135.503 177.456 135.647 177.456 135.78 177.5C136.98 178.05 136.59 186.01 136.59 186.09C136.586 186.618 136.442 187.136 136.173 187.591C135.904 188.045 135.521 188.421 135.06 188.68C134.697 188.876 134.293 188.986 133.88 189V189ZM133.65 178.41C133.023 178.362 132.397 178.513 131.86 178.84C131.731 178.943 131.63 179.077 131.566 179.228C131.501 179.38 131.475 179.546 131.49 179.71C131.49 180.13 131.49 180.61 131.49 181.1C131.44 183.36 131.37 186.77 132.49 187.47C132.796 187.693 133.154 187.836 133.529 187.885C133.905 187.934 134.287 187.887 134.64 187.75C134.932 187.572 135.172 187.32 135.335 187.02C135.498 186.72 135.579 186.382 135.57 186.04C135.74 183.551 135.65 181.05 135.3 178.58C134.757 178.474 134.204 178.424 133.65 178.43V178.41Z" fill="#263238"/>
<path d="M138.12 189.27C138.12 189.27 137.96 192.5 138.58 192.82C139.2 193.14 147.49 192.5 147.8 191.82C148.11 191.14 147.96 188.59 147.34 188.43C146.72 188.27 138.89 188.47 138.12 189.27Z" fill="#319795"/>
<path d="M139.76 193.45C139.278 193.483 138.794 193.433 138.33 193.3C137.72 192.98 137.46 191.62 137.58 189.25C137.581 189.12 137.631 188.995 137.72 188.9C138.78 187.79 147.05 187.83 147.48 187.9C147.631 187.95 147.769 188.034 147.883 188.145C147.997 188.256 148.085 188.391 148.14 188.54C148.555 189.666 148.607 190.893 148.29 192.05C148.212 192.174 148.109 192.281 147.989 192.365C147.869 192.449 147.733 192.509 147.59 192.54C145.018 193.109 142.394 193.414 139.76 193.45V193.45ZM138.87 192.34C141.718 192.387 144.562 192.115 147.35 191.53C147.489 190.675 147.414 189.799 147.13 188.98C146.13 188.85 139.89 189.08 138.65 189.58C138.576 190.506 138.65 191.438 138.87 192.34Z" fill="#263238"/>
<path d="M135.68 185.07C135.68 185.07 135.48 189.18 136.26 189.59C137.04 190 147.63 189.18 148.02 188.36C148.41 187.54 148.21 184.25 147.43 184.05C146.65 183.85 136.66 184.05 135.68 185.07Z" fill="#319795"/>
<path d="M137.7 190.24C137.131 190.281 136.559 190.224 136.01 190.07C135.11 189.6 135.01 187.07 135.13 185.07C135.138 184.939 135.191 184.815 135.28 184.72C136.55 183.39 147.03 183.4 147.57 183.54C147.741 183.597 147.896 183.692 148.025 183.819C148.153 183.945 148.251 184.1 148.31 184.27C148.815 185.663 148.885 187.176 148.51 188.61C148.325 188.896 148.033 189.098 147.7 189.17C144.409 189.851 141.06 190.21 137.7 190.24V190.24ZM136.21 185.36C136.077 186.63 136.192 187.914 136.55 189.14C137.44 189.4 146.39 188.7 147.55 188.05C147.82 187.28 147.6 184.88 147.22 184.54C146.26 184.34 137.66 184.66 136.21 185.36V185.36Z" fill="#263238"/>
<path d="M135.27 180.55C135.27 180.55 135.06 184.66 135.88 185.07C136.7 185.48 147.8 184.66 148.21 183.84C148.62 183.02 148.42 179.73 147.6 179.52C146.78 179.31 136.29 179.52 135.27 180.55Z" fill="#319795"/>
<path d="M137.37 185.67C136.791 185.701 136.21 185.664 135.64 185.56C134.7 185.09 134.64 182.56 134.72 180.56C134.729 180.425 134.786 180.297 134.88 180.2C136.21 178.87 147.17 178.89 147.73 179.03C147.912 179.089 148.078 179.189 148.215 179.322C148.352 179.456 148.457 179.619 148.52 179.8C149.032 181.182 149.095 182.69 148.7 184.11C148.17 185.15 140.82 185.67 137.37 185.67ZM135.79 180.85C135.73 182.62 135.89 184.34 136.16 184.61C137.05 184.88 146.57 184.16 147.76 183.52C148.03 182.77 147.81 180.34 147.41 180.03C146.56 179.85 137.33 180.13 135.79 180.85Z" fill="#263238"/>
<path d="M134.65 176C134.65 176 134.44 180.11 135.27 180.52C136.1 180.93 147.19 180.11 147.6 179.29C148.01 178.47 147.8 175.18 146.98 174.97C146.16 174.76 135.68 175 134.65 176Z" fill="#319795"/>
<path d="M136.75 181.15C136.163 181.168 135.575 181.118 135 181C134.06 180.53 134 178 134.09 176C134.097 175.867 134.154 175.742 134.25 175.65C135.57 174.32 146.53 174.34 147.09 174.48C147.272 174.538 147.438 174.639 147.575 174.772C147.712 174.906 147.817 175.069 147.88 175.25C148.392 176.632 148.455 178.14 148.06 179.56C147.55 180.62 140.2 181.15 136.75 181.15ZM135.18 176.33C135.043 177.595 135.166 178.874 135.54 180.09C136.44 180.36 145.96 179.63 147.15 179C147.42 178.25 147.15 175.82 146.8 175.51C146 175.33 136.72 175.6 135.18 176.33Z" fill="#263238"/>
<path d="M45.1499 195.07C45.4299 201.27 50.7999 205.68 54.1499 207.83C55.672 208.81 57.4499 209.318 59.2599 209.29L119 208.5V195.35L54.4699 186.35C54.4699 186.35 49.3399 186.55 47.9599 190.41" fill="white"/>
<path d="M59.12 209.83C57.247 209.836 55.4128 209.297 53.84 208.28C50.52 206.14 44.91 201.58 44.61 195.09C44.6046 194.946 44.656 194.805 44.7533 194.699C44.8506 194.592 44.9859 194.528 45.13 194.52C45.2013 194.516 45.2726 194.526 45.3397 194.551C45.4069 194.575 45.4684 194.612 45.5207 194.661C45.573 194.709 45.615 194.768 45.6441 194.833C45.6732 194.898 45.6888 194.969 45.69 195.04C45.97 201.04 51.28 205.35 54.43 207.37C55.8556 208.309 57.5336 208.79 59.24 208.75L118.49 207.97V195.82L54.42 186.82C54.47 186.82 49.74 187.07 48.5 190.53C48.4765 190.597 48.4399 190.659 48.3925 190.712C48.345 190.765 48.2876 190.808 48.2235 190.838C48.1594 190.869 48.0899 190.887 48.0189 190.89C47.948 190.894 47.877 190.884 47.81 190.86C47.6755 190.808 47.5661 190.707 47.5046 190.576C47.4432 190.446 47.4343 190.297 47.48 190.16C48.96 186.01 54.25 185.75 54.48 185.75L119.1 194.75C119.23 194.769 119.349 194.834 119.435 194.933C119.521 195.032 119.569 195.159 119.57 195.29V208.5C119.57 208.642 119.515 208.777 119.415 208.878C119.316 208.979 119.181 209.037 119.04 209.04L59.25 209.83H59.12Z" fill="#263238"/>
<path d="M54.4999 186.31C54.4999 186.31 49.3699 186.51 47.9899 190.37L45.1499 195.07C45.4299 201.27 50.7999 205.68 54.1499 207.83C55.672 208.81 57.4499 209.318 59.2599 209.29L119 208.5V198.5C117.76 197.08 116.58 195.78 115.77 194.89L114.4 194.69L111.33 205.23C111.33 205.23 75.5099 204.41 64.7699 202.48C54.0299 200.55 50.7199 198.35 50.4399 193.39C50.3829 191.948 50.7335 190.518 51.4516 189.266C52.1697 188.014 53.2262 186.989 54.4999 186.31V186.31Z" fill="#319795"/>
<path opacity="0.5" d="M54.4999 186.31C54.4999 186.31 49.3699 186.51 47.9899 190.37L45.1499 195.07C45.4299 201.27 50.7999 205.68 54.1499 207.83C55.672 208.81 57.4499 209.318 59.2599 209.29L119 208.5V198.5C117.76 197.08 116.58 195.78 115.77 194.89L114.4 194.69L111.33 205.23C111.33 205.23 75.5099 204.41 64.7699 202.48C54.0299 200.55 50.7199 198.35 50.4399 193.39C50.3829 191.948 50.7335 190.518 51.4516 189.266C52.1697 188.014 53.2262 186.989 54.4999 186.31V186.31Z" fill="white"/>
<path d="M114.71 193.71L114.3 213L134 208.92C134 208.92 144.07 209.74 146.33 209.54C148.59 209.34 150.44 206.04 150.44 204.4V200.7C150.889 200.367 151.254 199.933 151.504 199.432C151.754 198.932 151.883 198.38 151.88 197.82C151.68 196.18 148.39 195.15 148.39 195.15C148.39 195.15 138.94 193.09 136.26 193.71C133.58 194.33 114.71 193.71 114.71 193.71Z" fill="#319795"/>
<path d="M114.3 213.57C114.176 213.572 114.055 213.529 113.96 213.45C113.898 213.397 113.848 213.331 113.813 213.257C113.779 213.183 113.761 213.102 113.76 213.02L114.17 193.7C114.178 193.557 114.238 193.421 114.34 193.32C114.389 193.266 114.449 193.224 114.517 193.198C114.585 193.172 114.658 193.163 114.73 193.17C121.25 193.38 134.11 193.66 136.17 193.17C138.93 192.53 148.17 194.53 148.53 194.61C148.89 194.69 152.21 195.81 152.45 197.74C152.484 198.359 152.371 198.978 152.119 199.545C151.866 200.112 151.483 200.611 151 201V204.45C151 206.25 149 209.88 146.39 210.13C144.2 210.33 135.06 209.6 134.05 209.52L114.39 213.61L114.3 213.57ZM115.24 194.27L114.86 212.36L133.92 208.36H134.08C134.18 208.36 144.08 209.17 146.31 208.98C148.26 208.8 149.93 205.78 149.93 204.38V200.68C149.93 200.596 149.95 200.513 149.988 200.439C150.026 200.364 150.082 200.299 150.15 200.25C150.15 200.25 151.54 199.17 151.38 197.87C151.25 196.87 149.22 195.95 148.26 195.65C145.71 195.1 138.51 193.73 136.42 194.22C133.93 194.81 118.43 194.37 115.24 194.27Z" fill="#263238"/>
<path d="M54.09 158.15L88.61 142.33C88.61 142.33 90.05 141.33 87.79 141.09C85.5155 141.082 83.2453 141.289 81.01 141.71C81.01 141.71 73.72 131.34 72.28 130.93C70.84 130.52 70.02 130.93 69.82 131.76L69.61 132.58C69.61 132.58 57.79 135.95 53.26 141.91C48.73 147.87 54.09 158.15 54.09 158.15Z" fill="#319795"/>
<path d="M54.09 158.69C53.9911 158.69 53.8941 158.663 53.8094 158.612C53.7248 158.561 53.6558 158.488 53.61 158.4C53.38 157.97 48.16 147.75 52.83 141.59C57.06 136.02 67.23 132.73 69.16 132.15L69.29 131.62C69.3432 131.389 69.4435 131.171 69.5846 130.98C69.7256 130.789 69.9045 130.629 70.11 130.51C70.4707 130.34 70.8616 130.244 71.26 130.226C71.6583 130.209 72.0561 130.272 72.43 130.41C73.88 130.83 79.31 138.41 81.25 141.12C83.4219 140.708 85.6298 140.518 87.84 140.55C88.5 140.61 89.39 140.77 89.58 141.46C89.77 142.15 89.07 142.67 88.93 142.77H88.84L54.31 158.59C54.2475 158.643 54.1712 158.678 54.09 158.69V158.69ZM71.26 131.31C71.0511 131.302 70.8437 131.35 70.66 131.45C70.5781 131.496 70.507 131.559 70.4518 131.635C70.3965 131.711 70.3584 131.798 70.34 131.89L70.14 132.71C70.116 132.802 70.0683 132.887 70.0017 132.955C69.935 133.024 69.8518 133.074 69.76 133.1C69.64 133.1 58.05 136.5 53.7 142.24C49.96 147.17 53.4 155.4 54.34 157.44L88.34 141.86L88.45 141.76C88.2218 141.693 87.9872 141.649 87.75 141.63C85.5258 141.626 83.3061 141.83 81.12 142.24C81.0184 142.259 80.9135 142.248 80.8178 142.209C80.722 142.17 80.6395 142.104 80.58 142.02C77.09 137.02 72.98 131.76 72.14 131.45C71.8541 131.365 71.5582 131.318 71.26 131.31V131.31Z" fill="#263238"/>
<path d="M70.7599 148C70.6687 147.999 70.5791 147.976 70.4989 147.932C70.4187 147.889 70.3504 147.826 70.2999 147.75C69.9799 147.25 67.1599 142.75 67.1599 140.65C67.1599 138.74 69.7499 137.12 70.8899 136.5L69.5999 133.92C69.5363 133.788 69.5279 133.635 69.5766 133.496C69.6254 133.357 69.7273 133.244 69.8599 133.18C69.9925 133.116 70.145 133.108 70.2838 133.157C70.4225 133.206 70.5363 133.308 70.5999 133.44L72.1399 136.5C72.1955 136.635 72.1955 136.786 72.1399 136.92C72.1183 136.989 72.0822 137.052 72.0338 137.106C71.9855 137.159 71.9262 137.202 71.8599 137.23C70.9299 137.68 68.2599 139.23 68.2599 140.65C68.2599 142.19 70.4099 145.87 71.2599 147.16C71.3352 147.283 71.3595 147.43 71.3278 147.57C71.296 147.71 71.2106 147.832 71.0899 147.91C70.9905 147.97 70.8762 148.002 70.7599 148Z" fill="#263238"/>
<path d="M59.54 152.76C59.4428 152.758 59.3476 152.731 59.2636 152.682C59.1796 152.633 59.1095 152.564 59.06 152.48C58.95 152.27 56.28 147.39 56.28 144.73C56.3713 142.902 57.0758 141.158 58.28 139.78C58.3811 139.68 58.5177 139.624 58.66 139.624C58.8024 139.624 58.9389 139.68 59.04 139.78C59.1408 139.883 59.1973 140.021 59.1973 140.165C59.1973 140.309 59.1408 140.447 59.04 140.55C58.0162 141.729 57.4084 143.212 57.31 144.77C57.31 147.15 59.94 151.94 59.96 151.99C59.9954 152.052 60.018 152.121 60.0265 152.192C60.0351 152.263 60.0294 152.335 60.0099 152.404C59.9903 152.473 59.9573 152.537 59.9127 152.593C59.8681 152.649 59.8128 152.695 59.75 152.73C59.6824 152.752 59.6113 152.763 59.54 152.76V152.76Z" fill="#263238"/>
<path d="M54.4401 155.65C54.3268 155.639 54.2197 155.594 54.134 155.519C54.0483 155.444 53.9885 155.344 53.963 155.233C53.9375 155.122 53.9476 155.006 53.992 154.901C54.0364 154.797 54.1127 154.709 54.2101 154.65L74.1001 145.47C74.2327 145.409 74.3841 145.403 74.521 145.454C74.6579 145.504 74.7691 145.607 74.8301 145.74C74.8911 145.872 74.8969 146.024 74.8462 146.161C74.7956 146.298 74.6927 146.409 74.5601 146.47L54.6601 155.66C54.5867 155.67 54.5121 155.667 54.4401 155.65V155.65Z" fill="#263238"/>
<path d="M190.52 331C190.52 330.42 190.59 329.83 190.59 329.24C190.59 315.24 177.44 303.91 161.21 303.91C144.98 303.91 131.82 315.25 131.82 329.24C131.82 329.83 131.82 330.42 131.9 331H190.52Z" fill="white"/>
<path d="M190.52 331.57H131.9C131.763 331.57 131.632 331.519 131.532 331.426C131.431 331.333 131.37 331.206 131.36 331.07C131.31 330.39 131.28 329.82 131.28 329.27C131.28 315.01 144.71 303.4 161.21 303.4C177.71 303.4 191.14 315.01 191.14 329.27C191.14 329.81 191.14 330.39 191.06 331.07C191.048 331.205 190.986 331.331 190.886 331.424C190.786 331.516 190.656 331.568 190.52 331.57V331.57ZM132.4 330.49H190C190 330.04 190 329.65 190 329.27C190 315.6 177.06 304.49 161.16 304.49C145.26 304.49 132.31 315.6 132.31 329.27C132.36 329.65 132.38 330.05 132.4 330.49V330.49Z" fill="#263238"/>
<path d="M190.52 333.44C190.52 332.85 190.59 332.27 190.59 331.68C190.59 317.68 177.44 306.35 161.21 306.35C144.98 306.35 131.82 317.69 131.82 331.68C131.82 332.27 131.82 332.85 131.9 333.44H190.52Z" fill="white"/>
<path d="M190.52 334H131.9C131.763 334 131.632 333.949 131.532 333.856C131.431 333.764 131.37 333.636 131.36 333.5C131.31 332.82 131.28 332.24 131.28 331.7C131.28 317.43 144.71 305.83 161.21 305.83C177.71 305.83 191.14 317.43 191.14 331.7C191.14 332.24 191.14 332.81 191.06 333.5C191.048 333.635 190.986 333.761 190.886 333.854C190.786 333.946 190.656 333.998 190.52 334V334ZM132.4 332.91H190C190 332.47 190 332.07 190 331.7C190 318.03 177.06 306.91 161.16 306.91C145.26 306.91 132.36 318 132.36 331.68C132.36 332.06 132.38 332.45 132.4 332.89V332.91Z" fill="#263238"/>
<path d="M161.21 306.35C151.21 306.35 142.38 310.66 137.07 317.24L143.96 322.68C145.933 320.232 148.429 318.257 151.265 316.9C154.102 315.543 157.206 314.839 160.35 314.839C163.494 314.839 166.598 315.543 169.435 316.9C172.271 318.257 174.767 320.232 176.74 322.68L185.74 317.68C180.44 310.85 171.43 306.35 161.21 306.35Z" fill="#319795"/>
<path d="M176.74 323.23C176.658 323.231 176.578 323.213 176.504 323.176C176.431 323.14 176.368 323.086 176.32 323.02C174.398 320.635 171.965 318.71 169.202 317.388C166.438 316.066 163.414 315.379 160.35 315.379C157.286 315.379 154.262 316.066 151.498 317.388C148.735 318.71 146.302 320.635 144.38 323.02C144.292 323.13 144.164 323.201 144.023 323.218C143.883 323.235 143.742 323.196 143.63 323.11L136.73 317.66C136.618 317.571 136.547 317.442 136.53 317.3C136.519 317.156 136.562 317.014 136.65 316.9C142.25 309.96 151.43 305.81 161.21 305.81C171.21 305.81 180.56 310.13 186.13 317.35C186.175 317.413 186.207 317.484 186.225 317.56C186.242 317.636 186.244 317.714 186.23 317.79C186.215 317.868 186.183 317.941 186.136 318.005C186.09 318.069 186.029 318.122 185.96 318.16L176.96 323.16C176.892 323.198 176.817 323.221 176.74 323.23V323.23ZM160.35 314.3C163.5 314.294 166.612 314.981 169.467 316.312C172.322 317.643 174.849 319.584 176.87 322L184.87 317.53C179.46 310.86 170.67 306.9 161.2 306.9C151.95 306.9 143.26 310.73 137.83 317.17L143.83 321.94C145.859 319.537 148.389 317.608 151.243 316.289C154.097 314.969 157.206 314.29 160.35 314.3V314.3Z" fill="#263238"/>
<path d="M169.23 332.69C169.152 330.374 168.178 328.18 166.513 326.569C164.848 324.959 162.622 324.059 160.305 324.059C157.988 324.059 155.762 324.959 154.097 326.569C152.432 328.18 151.457 330.374 151.38 332.69C151.38 332.94 151.38 333.19 151.38 333.44H169.15C169.21 333.19 169.23 332.94 169.23 332.69Z" fill="#263238"/>
<path d="M169.19 334H151.42C151.284 333.998 151.154 333.946 151.054 333.854C150.954 333.761 150.892 333.635 150.88 333.5C150.88 333.24 150.88 332.98 150.88 332.71C150.96 330.253 151.992 327.923 153.758 326.214C155.525 324.504 157.887 323.548 160.345 323.548C162.803 323.548 165.165 324.504 166.931 326.214C168.698 327.923 169.73 330.253 169.81 332.71C169.81 332.98 169.81 333.24 169.81 333.5C169.805 333.575 169.785 333.648 169.751 333.714C169.716 333.781 169.668 333.84 169.61 333.887C169.552 333.934 169.484 333.968 169.412 333.988C169.34 334.007 169.264 334.011 169.19 334V334ZM151.93 332.91H168.69V332.71C168.69 330.488 167.807 328.356 166.235 326.785C164.664 325.213 162.532 324.33 160.31 324.33C158.087 324.33 155.956 325.213 154.384 326.785C152.813 328.356 151.93 330.488 151.93 332.71V332.91Z" fill="#263238"/>
</svg>
