<svg width="173" height="30" viewBox="0 0 173 30" fill="none" xmlns="http://www.w3.org/2000/svg">
<path d="M46.5959 5.59L43.2959 14.5L47.2259 25H42.9359L40.0559 17.32H38.7059V25H34.5059V5.59H38.7059V13.72H39.7259L42.7559 5.59H46.5959ZM55.5863 5.59H59.7863V21.34C59.7863 23.98 58.5463 25.3 56.0663 25.3H52.3463C49.8663 25.3 48.6263 23.98 48.6263 21.34V5.59H52.8263V21.7C52.8263 21.86 52.8763 22 52.9763 22.12C53.0963 22.24 53.2363 22.3 53.3963 22.3H55.0163C55.1763 22.3 55.3063 22.24 55.4063 22.12C55.5263 22 55.5863 21.86 55.5863 21.7V5.59ZM73.7902 25H69.5902V8.89C69.5902 8.73 69.5302 8.59 69.4102 8.47C69.3102 8.35 69.1802 8.29 69.0202 8.29H67.4002C67.2402 8.29 67.1002 8.35 66.9802 8.47C66.8802 8.59 66.8302 8.73 66.8302 8.89V25H62.6302V9.25C62.6302 6.61 63.8702 5.29 66.3502 5.29H70.0702C72.5502 5.29 73.7902 6.61 73.7902 9.25V25ZM82.2755 17.29V14.2H87.8255V21.34C87.8255 23.98 86.5855 25.3 84.1055 25.3H80.3255C77.8455 25.3 76.6055 23.98 76.6055 21.34V9.25C76.6055 6.61 77.8455 5.29 80.3255 5.29H84.1055C86.5855 5.29 87.8255 6.61 87.8255 9.25V11.08H83.8355V8.74C83.8355 8.58 83.7755 8.44 83.6555 8.32C83.5555 8.2 83.4255 8.14 83.2655 8.14H81.3755C81.2155 8.14 81.0755 8.2 80.9555 8.32C80.8555 8.44 80.8055 8.58 80.8055 8.74V21.82C80.8055 21.98 80.8555 22.12 80.9555 22.24C81.0755 22.36 81.2155 22.42 81.3755 22.42H83.2655C83.4255 22.42 83.5555 22.36 83.6555 22.24C83.7755 22.12 83.8355 21.98 83.8355 21.82V17.29H82.2755ZM94.3406 17.38V25H90.1406V5.59H98.9006V9.22H94.3406V13.87H98.6006V17.38H94.3406ZM108.291 5.59H112.491V21.34C112.491 23.98 111.251 25.3 108.771 25.3H105.051C102.571 25.3 101.331 23.98 101.331 21.34V5.59H105.531V21.7C105.531 21.86 105.581 22 105.681 22.12C105.801 22.24 105.941 22.3 106.101 22.3H107.721C107.881 22.3 108.011 22.24 108.111 22.12C108.231 22 108.291 21.86 108.291 21.7V5.59ZM120.32 9.16V5.59H130.82V9.16H127.67V25H123.47V9.16H120.32ZM136.938 21.52H141.588V25H132.738V5.59H141.588V9.01H136.938V13.57H141.288V16.87H136.938V21.52ZM151.248 21.82V18.82H155.238V21.34C155.238 23.98 153.998 25.3 151.518 25.3H147.738C145.258 25.3 144.018 23.98 144.018 21.34V9.25C144.018 6.61 145.258 5.29 147.738 5.29H151.518C153.998 5.29 155.238 6.61 155.238 9.25V11.08H151.248V8.74C151.248 8.58 151.188 8.44 151.068 8.32C150.968 8.2 150.838 8.14 150.678 8.14H148.788C148.628 8.14 148.488 8.2 148.368 8.32C148.268 8.44 148.218 8.58 148.218 8.74V21.82C148.218 21.98 148.268 22.12 148.368 22.24C148.488 22.36 148.628 22.42 148.788 22.42H150.678C150.838 22.42 150.968 22.36 151.068 22.24C151.188 22.12 151.248 21.98 151.248 21.82ZM161.958 17.38V25H157.758V5.59H161.958V13.72H165.288V5.59H169.488V25H165.288V17.38H161.958Z" fill="#234E52"/>
<g clip-path="url(#clip0_139_2371)">
<path fill-rule="evenodd" clip-rule="evenodd" d="M18.1334 18.3862L12.4052 21.8346V29.8742L12.4056 29.8744L24.8111 22.4059V7.46859L12.4056 0L0 7.46859L1.2523e-06 22.4059L6.67706 26.4257V11.489L12.4052 8.04048L18.1334 11.489V18.3862Z" fill="#285E61"/>
<mask id="mask0_139_2371" style="mask-type:alpha" maskUnits="userSpaceOnUse" x="0" y="0" width="25" height="30">
<path fill-rule="evenodd" clip-rule="evenodd" d="M18.1334 18.3862L12.4052 21.8346V29.8742L12.4056 29.8744L24.8111 22.4059V7.46859L12.4056 0L0 7.46859L1.2523e-06 22.4059L6.67706 26.4257V11.489L12.4052 8.04048L18.1334 11.489V18.3862Z" fill="#3A36FF"/>
</mask>
<g mask="url(#mask0_139_2371)">
<path d="M7.93827 27.2463L-7.54797 17.923L-4.19621 11.8693L11.29 21.1926L7.93827 27.2463Z" fill="#F3F4F6"/>
<path d="M7.9386 27.2465L17.1781 32.8091L20.5363 26.7437L11.2968 21.1812L7.9386 27.2465Z" fill="#4FD1C5"/>
<path d="M9.64642 20.253L-7.54761 9.90152L-4.63386 4.63897L12.5602 14.9904L9.64642 20.253Z" fill="#D1D5DB"/>
<path d="M9.64601 20.254L24.7573 29.3516L27.6711 24.089L12.5598 14.9915L9.64601 20.254Z" fill="#2C7A7B"/>
<path d="M12.8038 15.1904L-1.08752 6.8273L1.82623 1.56475L15.7176 9.92787L12.8038 15.1904Z" fill="#9CA3AF"/>
<path d="M32.1402 19.8735L1.06091 1.16263L5.49111 -6.8388L36.5704 11.8721L32.1402 19.8735Z" fill="#285E61"/>
</g>
</g>
<defs>
<clipPath id="clip0_139_2371">
<rect width="25" height="30" fill="white"/>
</clipPath>
</defs>
</svg>
