<svg width="29" height="26" viewBox="0 0 29 26" fill="none" xmlns="http://www.w3.org/2000/svg">
<path d="M28.6284 6.56337C27.6666 6.9875 26.6417 7.26862 25.5732 7.40512C26.6724 6.74537 27.5114 5.70862 27.9058 4.459C26.8809 5.07325 25.7494 5.50713 24.5435 5.74925C23.5703 4.70763 22.1833 4.0625 20.6703 4.0625C17.7347 4.0625 15.3714 6.45775 15.3714 9.39412C15.3714 9.81662 15.4069 10.2229 15.4942 10.6096C11.086 10.3935 7.18533 8.26962 4.56496 5.03425C4.10748 5.83212 3.83914 6.74537 3.83914 7.7285C3.83914 9.5745 4.7848 11.2109 6.1944 12.1582C5.3425 12.142 4.50676 11.8934 3.79873 11.5017C3.79873 11.518 3.79873 11.5391 3.79873 11.5602C3.79873 14.1505 5.63671 16.302 8.04693 16.7976C7.61532 16.9162 7.14491 16.9731 6.65673 16.9731C6.31726 16.9731 5.97456 16.9536 5.65287 16.8821C6.33989 18.993 8.28941 20.5449 10.6075 20.5952C8.80346 22.0139 6.51286 22.8686 4.03312 22.8686C3.59828 22.8686 3.18122 22.8491 2.76416 22.7955C5.11296 24.3181 7.89659 25.1875 10.8985 25.1875C20.6557 25.1875 25.9902 17.0625 25.9902 10.0197C25.9902 9.78412 25.9822 9.55662 25.9708 9.33075C27.0232 8.58 27.9074 7.64237 28.6284 6.56337Z" fill="#6B7280"/>
</svg>
