<svg width="26" height="23" viewBox="0 0 26 23" fill="none" xmlns="http://www.w3.org/2000/svg">
<path d="M25.1562 5.80606C24.3009 6.18125 23.3896 6.42994 22.4394 6.55069C23.4169 5.96706 24.1629 5.04994 24.5137 3.9445C23.6023 4.48787 22.5961 4.87169 21.5237 5.08588C20.6583 4.16444 19.4249 3.59375 18.0794 3.59375C15.4689 3.59375 13.3673 5.71262 13.3673 8.31019C13.3673 8.68394 13.3989 9.04331 13.4766 9.38544C9.5565 9.19425 6.08781 7.31544 3.75762 4.45337C3.35081 5.15919 3.11219 5.96706 3.11219 6.83675C3.11219 8.46975 3.95312 9.91731 5.20662 10.7554C4.44906 10.741 3.70587 10.5211 3.07625 10.1746C3.07625 10.189 3.07625 10.2077 3.07625 10.2264C3.07625 12.5177 4.71069 14.421 6.854 14.8594C6.47019 14.9644 6.05187 15.0147 5.61775 15.0147C5.31587 15.0147 5.01112 14.9974 4.72506 14.9342C5.336 16.8015 7.06963 18.1743 9.131 18.2189C7.52675 19.4738 5.48981 20.2299 3.28469 20.2299C2.898 20.2299 2.52712 20.2127 2.15625 20.1652C4.24494 21.5122 6.72031 22.2812 9.38975 22.2812C18.0665 22.2812 22.8103 15.0937 22.8103 8.86362C22.8103 8.65519 22.8031 8.45394 22.793 8.25412C23.7288 7.59 24.5151 6.76056 25.1562 5.80606Z" fill="#747474"/>
</svg>
